<svg id="Background_5" data-name="Background 5" xmlns="http://www.w3.org/2000/svg" xmlns:xlink="http://www.w3.org/1999/xlink" width="834" height="1193.672" viewBox="0 0 834 1193.672">
  <defs>
    <style>
      .cls-1 {
        fill: none;
      }

      .cls-2 {
        clip-path: url(#clip-path);
      }

      .cls-3 {
        fill: #84bf41;
      }

      .cls-4 {
        fill: #faaf3f;
      }

      .cls-5 {
        fill: #a4dff9;
      }

      .cls-6 {
        fill: #723a83;
      }
    </style>
    <clipPath id="clip-path">
      <rect id="Mask" class="cls-1" width="834" height="1193.672"/>
    </clipPath>
  </defs>
  <g id="Group_5" data-name="Group 5">
    <rect id="Mask-2" data-name="Mask" class="cls-1" width="834" height="1193.672"/>
    <g id="Mask_Group_5" data-name="Mask Group 5" class="cls-2">
      <path id="Fill_16" data-name="Fill 16" class="cls-3" d="M353.964,150.511a65.337,65.337,0,0,1-16.713-1.577,51.077,51.077,0,0,1-18.36-8.9c-6.914-5.109-12.4-11.092-17.7-16.879-1.525-1.664-3.1-3.382-4.683-5.052a223.732,223.732,0,0,0-26.155-23.439c-1.739-1.335-3.569-2.7-5.438-4.054-.892-.647-1.8-1.3-2.708-1.937-.252-.178-.6-.378-.963-.589a6.336,6.336,0,0,1-1.945-1.429c-.159-.259-.186-.434-.079-.521a.364.364,0,0,1,.222-.061,3.235,3.235,0,0,1,1.292.413c1.043.57,2.079,1.179,3.167,1.864,2.013,1.263,3.954,2.628,5.769,3.918a193.948,193.948,0,0,1,21.614,17.214c3.416,3.266,6.57,6.733,9.621,10.085a143.829,143.829,0,0,0,14.15,14.14c7.462,6.219,19.811,13.858,36.262,14.935,1.731.113,3.521.152,5.32.115,9.061-.184,19.071-2.286,29.754-6.247a38.534,38.534,0,0,1-12.521,5.472,80.6,80.6,0,0,1-14.793,2.292C357.325,150.4,355.6,150.477,353.964,150.511Zm46.546-13.3a.655.655,0,0,1-.267-.044.079.079,0,0,1-.055-.068c-.044-.462,3.373-2.739,4.66-3.6l.027-.018c.228-.152.393-.262.473-.318a32.9,32.9,0,0,0,5.8-5.1l.017-.02.017-.02a.5.5,0,0,1,.237.731,2.235,2.235,0,0,1-.7.632l-.03.021a31.772,31.772,0,0,0-3.644,3.09c-.441.414-.9.843-1.358,1.257l-.013.012C404.244,135.046,401.67,137.189,400.51,137.212Zm-33.2-13.2a47.167,47.167,0,0,1-5.709-.343c-5.745-.582-11.684-1.184-16.92-2.9a65.519,65.519,0,0,1-9.982-4.52,63.388,63.388,0,0,0-9.847-4.45,4.137,4.137,0,0,0-1.356-.2,3.453,3.453,0,0,0-2.768,1.275,1.275,1.275,0,0,0,.144,1.643,32.3,32.3,0,0,0,8.274,6.606c.224.129.308.31.229.5a.86.86,0,0,1-.772.416,1.119,1.119,0,0,1-.4-.064c-12.858-4.523-23.949-11.022-32.073-18.8a31.273,31.273,0,0,1-4.5-5.143c-.588-.88-1.1-1.8-1.586-2.691l-.011-.019c-.213-.386-.433-.786-.658-1.177C284.355,85.423,274.9,77.107,262.026,70.1c-10.317-5.613-22.557-10.452-39.687-15.69a23.685,23.685,0,0,0-7.245-1.256,8.347,8.347,0,0,0-3.969.956,10.132,10.132,0,0,0-1.207.842,6.956,6.956,0,0,1-1.94,1.176,7.874,7.874,0,0,1-2.462.367c-.382.008-.769,0-1.144,0l-.206,0c-.469,0-.946,0-1.416.008a74.276,74.276,0,0,0-14.555,2.087c-2.093.446-4.246.906-6.493,1.3-.526-1.957,5.763-5.764,9.141-7.81.419-.253.78-.472,1.075-.656a83.482,83.482,0,0,1,14.046-6.96,85.152,85.152,0,0,1,19.255-4.932,79.343,79.343,0,0,1,8.851-.686c1.792-.036,3.589-.008,5.342.084a47.042,47.042,0,0,1,12.618,2.182A53.177,53.177,0,0,1,260.289,45c7.679,4.191,15.619,8.523,21.838,13.807,7.232,6.143,11.961,13.423,16.533,20.463q-2.761-1.907-5.518-3.818c5.008,15.055,19.233,28.374,39.033,36.54,9.8,4.043,19.735,6.084,28.722,5.9a52.577,52.577,0,0,0,6.421-.52c14.063-2.032,24.653-9.488,35.155-17.607l-.012.029c-2.775,4.871-5.644,9.908-10.587,14.179a45.736,45.736,0,0,1-18.263,9.064,29.322,29.322,0,0,1-5.17.919C368.078,123.984,367.7,124,367.308,124.01Zm25.107-2.226c-.166,0-.268-.032-.3-.105-.172-.358,1.3-1.535,1.472-1.668a28.321,28.321,0,0,1,2.949-1.935l2.787-1.671a.979.979,0,0,1,.307-.137.65.65,0,0,1,.114-.013,1.2,1.2,0,0,1,.75.369l.018.015.061.05a3.556,3.556,0,0,0,2.244.584l.133,0a12.607,12.607,0,0,0,2.579-.472c.012.307-.348.568-.7.784a32.042,32.042,0,0,1-12.233,4.189A1.617,1.617,0,0,1,392.415,121.784Zm19.446-6.974c-.086,0-.139-.028-.159-.088-.1-.3.7-1.338,1.232-1.611a1.128,1.128,0,0,1,.218-.085.972.972,0,0,1,.252-.041.5.5,0,0,1,.54.381,5.167,5.167,0,0,1-1.539,1.252A1.427,1.427,0,0,1,411.861,114.809Zm19.461-3.989,0,0a22.964,22.964,0,0,1,3.557-3.436.852.852,0,0,1,.344-.185.538.538,0,0,1,.1-.012c.254-.005.489.171.484.362s-.189.377-.393.56-.4.373-.595.559a12.709,12.709,0,0,1-1.374,1.2,6.759,6.759,0,0,1-1.095.491A5.55,5.55,0,0,0,431.323,110.82Zm7.735-11.926a.734.734,0,0,1-.567-.149c-.371-.429.987-1.691,1.717-2.369.175-.163.312-.29.394-.376l.81-.846q1.755-1.832,3.508-3.665a20.614,20.614,0,0,1,7.129-5.415c-4.519,3.448-6.568,6.5-6.262,9.331l.011.093a1.291,1.291,0,0,1-.075.8,2.32,2.32,0,0,1-.944.765,17.12,17.12,0,0,1-5.067,1.756A4.184,4.184,0,0,1,439.058,98.894ZM392.57,97.081a.579.579,0,0,1-.574-.244c-.156-.3.093-.836.594-1.267a1.273,1.273,0,0,1,.526-.261,1.3,1.3,0,0,1,.282-.038.769.769,0,0,1,.678.292.78.78,0,0,1-.107.934,1.759,1.759,0,0,1-.931.516A2.2,2.2,0,0,1,392.57,97.081Zm-18.739-1.869h0c-.182-.227-.047-.5.363-.733a4.536,4.536,0,0,1,.869-.33l.151-.046a12.12,12.12,0,0,0,3.377-1.625l.2-.142a4.905,4.905,0,0,1,1.269-.736,2.486,2.486,0,0,1,.433-.11c-.143.03-.5.437-.785.764a4.97,4.97,0,0,1-.355.385,10.948,10.948,0,0,1-1.56,1.083,11.416,11.416,0,0,1-3.955,1.489Zm38.418-5.128a.114.114,0,0,1-.107-.044c-.139-.22.643-1.225,1.127-1.785.859-1,1.8-2.02,2.805-3.038a99.278,99.278,0,0,1,13.509-11.178c2.3-1.625,4.806-3.3,7.647-5.109l.284-.181a30.667,30.667,0,0,0,4.76-3.466l.037-.036a3.451,3.451,0,0,1,1.066-.787,2.053,2.053,0,0,1,.446-.125,17.409,17.409,0,0,1-3.532,3.162c-.709.531-1.443,1.08-2.095,1.651a27.968,27.968,0,0,0-3.853,4.411,23.981,23.981,0,0,1-4.795,5.167,35.431,35.431,0,0,1-5.187,2.971,37.4,37.4,0,0,0-4.988,2.824,28.928,28.928,0,0,0-2.741,2.321,24.574,24.574,0,0,1-3.377,2.753A2.757,2.757,0,0,1,412.249,90.084ZM398.914,80.066h-.049c.069-.59.841-1.394,1.461-2.04.223-.233.434-.452.589-.637.847-1.01,1.623-1.923,2.372-2.791a.639.639,0,0,1,.033.761,2.565,2.565,0,0,1-.467.542l-.011.01-.106.1a10.781,10.781,0,0,0-1.259,1.61c-.16.234-.325.475-.5.71l-.014.019C400.559,78.9,399.714,80.049,398.914,80.066Zm55.358-3.6h-.022c-.474.007-.768-.1-.872-.316-.21-.428.3-1.271,1.514-2.505l.014-.015a19.694,19.694,0,0,1,4.244-3.106c1.141-.657,2.359-1.28,3.537-1.883,1.494-.765,3.038-1.555,4.439-2.421a54.023,54.023,0,0,0,4.938-3.575,48.344,48.344,0,0,1,5.633-3.99c1.6-.929,3.4-1.744,5.13-2.533,1.77-.805,3.6-1.637,5.228-2.59a6.588,6.588,0,0,1,3.01-1.129,2.958,2.958,0,0,1,.565.042C480.011,57.167,471.171,64.28,463.8,70.576l-.115.1a29.643,29.643,0,0,1-8.1,5.453A3.686,3.686,0,0,1,454.272,76.463Zm-14.73-.514a.64.64,0,0,1-.244-.035.4.4,0,0,1-.217-.2.836.836,0,0,1-.036-.885,2.75,2.75,0,0,1,1.591-.7.688.688,0,0,1,.327.062.409.409,0,0,1,.2.411,1.735,1.735,0,0,1-1.625,1.343Zm-137.26.346h0a.3.3,0,0,0-.04,0l-.011,0v0a2.514,2.514,0,0,1-1.447-.582c-.444-.3-.917-.589-1.373-.865a21.508,21.508,0,0,1-1.833-1.194c-.884-.664-1.916-1.656-1.811-2.609,3.115,1,5.6,4,6.518,5.247ZM480.418,66.2h0l-.009-.005a5.225,5.225,0,0,1,.069-1.26.984.984,0,0,1,.552-.447,1.7,1.7,0,0,1,.536-.1h.028a1.318,1.318,0,0,1,.931.3.441.441,0,0,1-.008.57,3.172,3.172,0,0,1-2.1.951h0ZM81.66,62.9c-4.205.086-8.8-.053-14.048-.422A235.718,235.718,0,0,1,28.26,56.391a104.41,104.41,0,0,1-17.2-5.532C4.889,48.126.816,45-1.046,41.578A155.7,155.7,0,0,0,78.1,61.035c4.332-.088,8.744-.354,13.113-.79a59.35,59.35,0,0,0,12.371-2.285c6.167-2.023,10.915-5.673,14.882-8.935a210.478,210.478,0,0,0,20.606-19.343c1.194-1.288,2.4-2.62,3.569-3.908,8.7-9.6,17.7-19.533,32.65-24.651a99.549,99.549,0,0,1,20.04-4.1,182,182,0,0,1,18.235-1.365c2.784-.057,5.506-.029,8.091.082a90.812,90.812,0,0,1,16.9,2.221c11.49,2.718,20.822,7.881,28.434,12.573,14.61,9.005,23.925,17.241,29.316,25.92C284.478,24.817,273.435,14.547,258.06,6.7A100.269,100.269,0,0,0,211.316-4.178a85.109,85.109,0,0,0-9.893.774C176.857,0,158.806,13.8,147.989,24.782c-2.479,2.516-4.862,5.129-7.168,7.656a164.209,164.209,0,0,1-12.78,12.986A67.6,67.6,0,0,1,99.494,60.767,81.346,81.346,0,0,1,81.66,62.9ZM17.446,53.047v0c.158.051.328.111.519.181.008-.123.018-.246.028-.369l.02-.242-.72-.031-.066,0-.615-.027h0l.615.026.722.033.061,0c-.008.1-.016.206-.024.309l0,.039-.02.259C17.792,53.167,17.624,53.107,17.446,53.047Zm443.966,1.918a.814.814,0,0,1-.088,0c-.185-.017-.291-.069-.315-.155-.119-.42,1.734-1.544,2.107-1.765,1.677-1.006,3.462-1.991,5.306-2.926a18.928,18.928,0,0,1,5.053-1.9c.558-.106,1.14-.177,1.7-.245a19.9,19.9,0,0,0,2.167-.344l.079-.019c.212-.051.431-.1.654-.133a2.613,2.613,0,0,1,.326-.029,1.212,1.212,0,0,1,.529.091,24.145,24.145,0,0,1-4.814,1.548,30.686,30.686,0,0,0-4.059,1.2,22.221,22.221,0,0,0-3.842,2.147c-.57.372-1.159.757-1.772,1.115l-.233.14-.019.011A8.382,8.382,0,0,1,461.412,54.965Zm-116.694,2.25a8.506,8.506,0,0,1-1.881-.155c-1.11-.225-1.762-.682-1.991-1.4a4.532,4.532,0,0,1,1.244-.188,13.909,13.909,0,0,1,5.379,1.428A18.2,18.2,0,0,1,344.718,57.215Zm-14.16-.8a49.075,49.075,0,0,1-13.319-3.5,67.2,67.2,0,0,1-12.705-7.736l-.516-.371c-.357-.257-.736-.52-1.138-.8L302.868,44c-2.061-1.428-4.4-3.046-5.1-4.832a.764.764,0,0,1,.162-.02c.9-.018,2.181,1.407,2.868,2.172.143.16.257.286.339.368,2.6,2.6,6.388,4.634,10.048,6.6l.537.289.8.433c5.471,2.953,11.128,6.006,18.037,7.4Zm165.484-6.456,0,0c-.313-.208-.5-.319-.618-.393a.76.76,0,0,1-.35-.323c-.054-.078-.128-.186-.249-.348l1.369.272c-.03.15-.057.3-.085.452-.02.113-.041.226-.063.339Zm-320,6.388c-.8.016-1.359-.171-1.537-.514-.2-.383.156-.8.565-1.191.13-.125.339-.328.614-.6,8.183-7.962,12.978-12.108,14.252-12.322a.594.594,0,0,1,.086-.009.358.358,0,0,1,.1.011.285.285,0,0,1,.193.224c.024.226-.258.52-.531.719-2.265,1.64-3.3,3.809-4.3,5.907-.261.546-.53,1.111-.817,1.657a11.086,11.086,0,0,1-7.958,6.053A5,5,0,0,1,176.045,56.342Zm322.21-6.62,0,0c-.309-.206-.493-.318-.614-.392a.776.776,0,0,1-.351-.322c-.054-.078-.129-.185-.253-.35l.621.122.048.009.617.121c-.011.051-.021.1-.031.152l.091-.016-.036.193,0,.012c-.029.156-.059.311-.086.468Zm.126-.676v0l.022-.118-.041-.008-.041-.008.01-.046.027-.129.154.027.156.028c2.772-2.464,8.315-4.552,12.769-6.229,1.3-.491,2.532-.954,3.579-1.383a11.66,11.66,0,0,1,2.057-.565,7.518,7.518,0,0,0,2.756-.957l.233.087a1.09,1.09,0,0,1,.633.405c-.153-.026-.306-.053-.459-.081l-.163-.029a24.905,24.905,0,0,1-7.494,3.055,41.393,41.393,0,0,0-4.706,1.564,34.221,34.221,0,0,0-3.3,1.72,20.312,20.312,0,0,1-6.19,2.668Zm-1.991-.717,0,0q.469-.665.94-1.328l.347-.49.968.239-.2.364-.012.021q-.243.434-.485.866l-.939.2-.138.029-.475.1ZM159.123,53.181v0a1.962,1.962,0,0,1,.638-1.424l.007-.009c.045-.056.09-.111.132-.165a6.4,6.4,0,0,0,1.055-2.025.731.731,0,0,1,.434.837,2.389,2.389,0,0,1-.465.957c-.053.076-.111.164-.174.259-.406.613-1.02,1.539-1.625,1.571ZM548.934,42.594l0,0c-.313-.21-.5-.322-.619-.4a.769.769,0,0,1-.349-.324c-.055-.079-.129-.186-.246-.343l.578.114.03.006.761.15q-.03.156-.06.314l0,.022c-.029.152-.057.3-.087.456ZM278.519,46.7a6.792,6.792,0,0,0-2.036-1.074c-.406-.169-.786-.327-1.017-.453-1.152-.628-2.3-1.3-3.421-2a54.874,54.874,0,0,1-5.914-4.255c-.376-.313-3.015-3.037-2.792-4.041a.428.428,0,0,1,.262-.309,1.014,1.014,0,0,1,.385-.072h.1a1.844,1.844,0,0,1,1.167.525c2.371,2,4.676,3.981,6.851,5.894,1.173,1.03,2.248,1.982,3.285,2.913.329.294.7.586,1.057.868a9.1,9.1,0,0,1,2.076,2Zm270.631-5.824c-.2-.086-.373-.156-.519-.216a2.391,2.391,0,0,1-1.377-.98c.21.088.382.158.534.22a2.351,2.351,0,0,1,1.365.973Zm-27.315-.831,0,0c-.311-.208-.5-.32-.617-.395a.772.772,0,0,1-.35-.323c-.056-.081-.131-.188-.251-.349l.458.091.015,0c.3.06.6.119.9.177-.047.283-.1.56-.147.794Zm2.21-.234,0,0c-.314-.211-.5-.323-.618-.4a.776.776,0,0,1-.348-.322c-.054-.077-.13-.185-.249-.344.227.042.452.086.678.131l.693.137-.045.235,0,.016c-.035.18-.07.361-.1.543Zm7.167-.638v0l.034-.272.033-.268.11.036.169.06a2.083,2.083,0,0,1,1.378-.871,2.56,2.56,0,0,0,1.123-.534c.789.268,1.289.477,1.609,1.12a3.829,3.829,0,0,0-.942-.1,6.468,6.468,0,0,0-1.935.421,8.666,8.666,0,0,1-1.576.408ZM413.179,33.5l0,0c-.088-.11-.153-.187-.2-.245a.681.681,0,0,1-.2-.371c-.032-.112-.086-.3-.2-.63l1.095.051h.014l.289.013c-.143.11-.286.222-.425.33l-.317.247-.03.4-.015.2ZM187.327,36.219a15.058,15.058,0,0,1-1.647-.048c3.818-4.576,11.657-8.993,15.989-11.219a51.308,51.308,0,0,1,15.963-5.169,42.6,42.6,0,0,1,5.159-.426c.34-.007.683-.01,1.02-.008a4.126,4.126,0,0,1-2.983,1.053l-.09,0c-1.628.072-3.032.134-4.388.3.046-.045.094-.091.148-.15a10.516,10.516,0,0,0-2.919.665,18.5,18.5,0,0,0-2.356.795c-3.771,1.552-7.617,3.281-9.583,5.828-.035.045-.084.1-.143.177-.419.51-1.393,1.7-1.048,2.226.122.187.4.277.824.268.229,0,.548-.02.917-.037.535-.026,1.193-.057,1.866-.071,2.175-.044,3.469.124,3.954.515.171.138.227.284.165.434-.265.64-2.567,1.2-3.195,1.3l-.153.023a3.719,3.719,0,0,0-.533.105,2.1,2.1,0,0,0-1.141.957,4.426,4.426,0,0,1-.379.484,3.075,3.075,0,0,1-2.325.863c-.14,0-.288,0-.442,0-.37-.014-.763-.017-1.168-.008a52.789,52.789,0,0,0-5.862.576l-.145.02A49.674,49.674,0,0,1,187.327,36.219Zm22.714-11.948c-.132,0-.2-.023-.205-.077-.194-.408,0-.886.547-1.344a8.935,8.935,0,0,1,1.938-1.1c.473-.216.873-.383,1.259-.527a20.3,20.3,0,0,1,2.771-.516c-.153.147-.33.294-.5.432-.284.236-.562.483-.831.723a17.443,17.443,0,0,1-1.787,1.45A14,14,0,0,1,210.041,24.271Zm37.344-2.919a23.369,23.369,0,0,0-7.265-.986h-.062c-.817.019-1.648.08-2.451.14-.825.061-1.677.124-2.516.141q-.213,0-.427,0c-2.4,0-4.028-.36-4.971-1.109.381-.617,1.352-1.055,2.885-1.3a21.561,21.561,0,0,1,2.953-.231c.2,0,.385-.006.545-.008,3.439-.04,8.192.507,11.311,3.347Z" transform="matrix(-0.995, -0.105, 0.105, -0.995, 1042.503, 193.108)"/>
      <path id="Fill_16-2" data-name="Fill 16" class="cls-4" d="M436.9,241.491c-8.22.748-15.468.26-21.541-1.451-8.057-2.266-15.452-6.983-22.609-14.421-8.255-8.581-14.519-18.848-20.576-28.778-1.737-2.847-3.531-5.788-5.352-8.657a282.39,282.39,0,0,0-30.62-39.826c-2.061-2.239-4.242-4.531-6.484-6.813-1.088-1.107-2.179-2.2-3.243-3.243a14.722,14.722,0,0,0-1.166-.975,7.334,7.334,0,0,1-2.327-2.4c-.171-.45-.178-.762-.023-.927a.446.446,0,0,1,.3-.128,2.973,2.973,0,0,1,1.622.633c1.282.939,2.542,1.946,3.852,3.079,2.454,2.112,4.773,4.39,6.939,6.542,8.759,8.709,17.925,18.256,25.62,29.05,3.97,5.569,7.568,11.518,11.049,17.271,4.955,8.191,10.079,16.661,16.349,24.158,8.806,10.526,23.769,23.193,45.045,23.765a59.147,59.147,0,0,0,6.918-.231c11.831-1.076,25.185-5.664,39.689-13.637a54.359,54.359,0,0,1-17.123,10.83,87.118,87.118,0,0,1-19.614,5.322C441.295,241.014,439.04,241.3,436.9,241.491Zm57.83-27.387a.7.7,0,0,1-.365-.051.111.111,0,0,1-.067-.108c-.007-.781,5.068-4.984,6.979-6.566.331-.274.591-.49.716-.6a62.443,62.443,0,0,0,8.736-9.2l.027-.035.027-.036c.44.193.459.785.227,1.223a4.186,4.186,0,0,1-1.037,1.125l-.059.05a59.7,59.7,0,0,0-5.467,5.579l-.011.009h0c-.668.745-1.36,1.516-2.055,2.26C500.641,209.613,496.413,213.95,494.728,214.1Zm-38.35-22.382a43.13,43.13,0,0,1-7.3-.152c-7.316-.579-14.881-1.178-21.371-3.822-4.45-1.813-8.384-4.6-12.189-7.286-3.779-2.672-7.685-5.434-12.028-7.174a3.68,3.68,0,0,0-1.718-.243,4.935,4.935,0,0,0-3.484,2.072,3.072,3.072,0,0,0-.325,3.366,38.363,38.363,0,0,0,9.68,11.165.739.739,0,0,1,.176.971,1.317,1.317,0,0,1-1.011.7,1,1,0,0,1-.5-.083,92.813,92.813,0,0,1-38.534-31.074,45.307,45.307,0,0,1-5.041-8.847c-.621-1.516-1.134-3.109-1.63-4.65l-.008-.026c-.223-.691-.453-1.406-.69-2.1-5.174-15.23-16.126-29.361-31.67-40.864-12.457-9.218-27.508-16.9-48.8-24.893a21,21,0,0,0-9.148-1.664,9.653,9.653,0,0,0-5.255,2.036,17.249,17.249,0,0,0-1.687,1.612,11.162,11.162,0,0,1-2.664,2.257,8.342,8.342,0,0,1-3.238.859c-.5.045-1,.069-1.488.093l-.24.012c-.6.03-1.217.073-1.825.128-6.807.619-12.759,2.706-19.059,4.916-2.753.965-5.6,1.964-8.558,2.845-.387-3.462,8.276-10.789,12.929-14.725l.024-.02c.569-.481,1.06-.9,1.461-1.243a122.1,122.1,0,0,1,19.126-13.608,99.206,99.206,0,0,1,25.536-10.394,78.54,78.54,0,0,1,11.51-1.947,68.058,68.058,0,0,1,6.865-.281,41.67,41.67,0,0,1,15.932,2.888,50.9,50.9,0,0,1,10.064,6.306c9.277,6.89,18.871,14.015,26.086,22.965,8.413,10.423,13.424,23.079,18.27,35.318q-2.488-2.427-4.971-4.857l-1.573-1.538c4.222,26.568,20.576,49.275,44.873,62.3,12.028,6.45,24.519,9.3,36.123,8.247a52.139,52.139,0,0,0,8.352-1.452c18.415-4.777,33.165-18.992,47.9-34.388l-.014.038c-4.3,8.957-8.743,18.219-15.744,26.273a64.933,64.933,0,0,1-11.345,10.252,66.966,66.966,0,0,1-13.525,7.462,31.381,31.381,0,0,1-6.8,2.065C457.376,191.614,456.88,191.676,456.378,191.722Zm30.965-4.907c-.211.019-.342-.027-.389-.138-.254-.6,1.994-2.92,2.252-3.182a49.252,49.252,0,0,1,4.323-3.772l1.879-1.518.236-.191,1.943-1.569a1.523,1.523,0,0,1,.441-.273.733.733,0,0,1,.161-.034c.406-.037.708.307.975.61l.093.105a3.553,3.553,0,0,0,2.983.859l.182-.019a15.079,15.079,0,0,0,3.6-1.081c-.029.555-.56,1.061-1.076,1.484a43.982,43.982,0,0,1-17.356,8.675A1.782,1.782,0,0,1,487.342,186.814Zm28.339-16.43c-.135.012-.207-.02-.215-.095-.031-.307,1.043-1.269,1.742-1.559a2.315,2.315,0,0,1,.294-.1,1.989,1.989,0,0,1,.34-.063c.371-.034.618.07.7.291a8.445,8.445,0,0,1-2.122,1.3A2.824,2.824,0,0,1,515.681,170.385Zm24.5-7.937,0,0a36.347,36.347,0,0,1,4.043-5.13,1.068,1.068,0,0,1,.373-.284.441.441,0,0,1,.109-.024.432.432,0,0,1,.453.483,1.728,1.728,0,0,1-.468.825c-.225.27-.45.553-.668.828a19.629,19.629,0,0,1-1.553,1.8,7.6,7.6,0,0,1-1.168.764A6.19,6.19,0,0,0,540.184,162.448ZM554.4,141.877c-.351.032-.578-.04-.674-.215-.394-.715,1.457-3.012,2.452-4.247.238-.3.422-.524.534-.677l2.975-4.08,2.975-4.08c2.539-3.48,5.417-7.424,9.527-9.941-6.042,6.327-9,11.779-9.027,16.669v.166a3.267,3.267,0,0,1-.206,1.386,4.141,4.141,0,0,1-1.268,1.4,20.623,20.623,0,0,1-6.471,3.434A4,4,0,0,1,554.4,141.877Zm-63.506.047c-.447.041-.731-.074-.821-.331-.151-.429.265-1.178,1.011-1.822a2.234,2.234,0,0,1,.788-.427,2.031,2.031,0,0,1,.411-.082.974.974,0,0,1,.95.348,1.156,1.156,0,0,1-.255,1.34,3.044,3.044,0,0,1-1.4.831A3.475,3.475,0,0,1,490.891,141.925Zm-21.922-1.768h0c-.214-.392.01-.895.6-1.344a6.324,6.324,0,0,1,1.229-.67l.208-.095a18.425,18.425,0,0,0,4.81-3.2l.29-.272a8.152,8.152,0,0,1,1.826-1.428,3.193,3.193,0,0,1,.6-.234,6.69,6.69,0,0,0-1.179,1.439c-.234.329-.436.612-.536.72a19.377,19.377,0,0,1-2.272,2.077,15.984,15.984,0,0,1-5.575,3.012Zm50.363-9.474a.12.12,0,0,1-.126-.052c-.2-.34,1.007-2.276,1.751-3.367,1.305-1.913,2.71-3.854,4.174-5.77A188.356,188.356,0,0,1,544.7,100c3.31-3.169,6.874-6.425,10.9-9.953l.411-.36a54.739,54.739,0,0,0,6.815-6.708l.054-.068a6.31,6.31,0,0,1,1.531-1.525,2.465,2.465,0,0,1,.61-.264,34.291,34.291,0,0,1-5.153,6.057c-1.019,1.027-2.072,2.089-3.023,3.185a60.7,60.7,0,0,0-5.764,8.362,50.823,50.823,0,0,1-7.125,9.816,56.71,56.71,0,0,1-7.318,5.851,59.575,59.575,0,0,0-7.028,5.562,55.621,55.621,0,0,0-3.975,4.455,46.345,46.345,0,0,1-4.888,5.3A4.024,4.024,0,0,1,519.332,130.683ZM502.39,108.908l-.067,0c.167-.9,1.351-2.184,2.3-3.217.341-.37.662-.719.9-1.012,1.218-1.488,2.453-2.978,3.671-4.429a1.012,1.012,0,0,1-.044,1.144,4.664,4.664,0,0,1-.71.847c-.063.065-.126.129-.189.194a19.85,19.85,0,0,0-1.971,2.553c-.251.365-.51.742-.778,1.108l-.027.037C504.844,107,503.52,108.805,502.39,108.908Zm73.423-10.246-.022,0c-.613.051-.976-.118-1.078-.5-.208-.759.577-2.33,2.331-4.667l.018-.025a34.84,34.84,0,0,1,5.944-5.976c1.57-1.282,3.234-2.51,4.844-3.7,2.043-1.507,4.156-3.066,6.094-4.748a95.02,95.02,0,0,0,6.9-6.875,84.221,84.221,0,0,1,7.873-7.695c2.207-1.81,4.639-3.431,6.99-5a85.675,85.675,0,0,0,7.142-5.123c1.1-.911,2.6-2.157,4.055-2.289a2.645,2.645,0,0,1,.721.031c-15.7,9.5-28.173,23.111-38.634,35.122l-.163.187c-3.34,3.841-6.794,7.813-11.268,10.538A4.262,4.262,0,0,1,575.813,98.662Zm-19.491.83a.476.476,0,0,1-.275-.044.513.513,0,0,1-.218-.335,2.146,2.146,0,0,1,.09-1.554,3.452,3.452,0,0,1,1.932-1.335.506.506,0,0,1,.367.086.8.8,0,0,1,.171.708,2.88,2.88,0,0,1-1.815,2.419A1.214,1.214,0,0,1,556.322,99.493ZM380.191,111.86h0l-.042,0-.024,0a2.494,2.494,0,0,1-1.813-.845l-.012-.01c-.536-.464-1.118-.9-1.68-1.326a23.126,23.126,0,0,1-2.254-1.85c-1.07-1.04-2.289-2.617-2.023-4.222,3.962,1.406,6.81,6.234,7.85,8.245Zm230.83-34h0l0,0a16.519,16.519,0,0,1,.249-2.191,1.653,1.653,0,0,1,.558-.8,1.049,1.049,0,0,1,.491-.208l.023,0a.762.762,0,0,1,.782.471,1.387,1.387,0,0,1-.094.987,3.286,3.286,0,0,1-2,1.742Zm-175.1-2.434a18.146,18.146,0,0,1-2.672.063c-1.565-.086-2.464-.44-2.748-1.082a10.138,10.138,0,0,1,1.775-.312,26.71,26.71,0,0,1,7.56.738C438.588,75.07,437.253,75.3,435.916,75.425ZM588.932,61.383a.66.66,0,0,1-.11,0c-.208-.016-.33-.092-.363-.227-.179-.742,2.382-3.064,2.9-3.522,2.25-2.021,4.63-4.009,7.073-5.907a23.269,23.269,0,0,1,6.6-3.958c.713-.243,1.452-.421,2.167-.593a19.121,19.121,0,0,0,2.745-.807l.091-.037a7.409,7.409,0,0,1,.846-.3,2.318,2.318,0,0,1,.409-.079.984.984,0,0,1,.646.129,28.092,28.092,0,0,1-6.245,3.278,34.673,34.673,0,0,0-5.245,2.572,33.811,33.811,0,0,0-5.124,4.328c-.77.744-1.566,1.514-2.385,2.232-.091.079-.211.188-.354.318C591.682,59.617,589.817,61.3,588.932,61.383ZM95.92,106.158a142.654,142.654,0,0,1-18.044.38A208.225,208.225,0,0,1,28.061,98.81,118.927,118.927,0,0,1,14.61,94.181l.006-.041,0-.028c.009-.059.017-.118.026-.177H14.6l-.538.01.552.235c-.008.056-.016.11-.024.162-.2-.07-.318-.106-.389-.127a.389.389,0,0,1-.223-.12c-.036-.032-.086-.078-.165-.144l.242-.005-.466-.205-.15-.066,0-.031.014-.1-.284.006.266.121-.008.053q-.017.116-.034.232c-.2-.069-.312-.1-.388-.129a.4.4,0,0,1-.226-.123c-.036-.032-.085-.078-.164-.144L13,93.559l.161,0A52.712,52.712,0,0,1,.344,85.83a24.622,24.622,0,0,1-7.858-11.2c29.6,22.18,62.953,31.76,99.123,28.471a162.652,162.652,0,0,0,17.017-2.479,64.446,64.446,0,0,0,16.281-5.1c8.246-4.125,14.908-11.055,20.506-17.226a415,415,0,0,0,29.424-36.348c1.725-2.4,3.475-4.88,5.167-7.279l.016-.023C192.66,16.728,205.729-1.8,225.751-12.186c8.925-4.63,18.374-7.137,26.439-8.978a179.387,179.387,0,0,1,23.7-3.925c3.6-.327,7.1-.5,10.419-.508a80.619,80.619,0,0,1,21.455,2.612c14.405,3.944,25.666,12.445,34.781,20.239,17.5,14.96,28.281,28.971,33.94,44.094C362.962,21.449,350.252,3.933,331.6-8.89A89.6,89.6,0,0,0,272.97-24.608,84.261,84.261,0,0,0,260.1-22.419c-32.168,8.087-57.477,34.3-73.045,54.863-3.569,4.713-7.031,9.593-10.378,14.312-5.759,8.118-11.71,16.508-18.391,24.311-12.387,14.464-25.532,24.5-39.069,29.819A83.552,83.552,0,0,1,95.92,106.158ZM420.4,74.23a44.512,44.512,0,0,1-17.225-5.478c-6.154-3.547-11.012-8.6-15.71-13.494l-.634-.66c-.434-.452-.9-.911-1.385-1.4l-.011-.011c-2.528-2.517-5.394-5.37-6.049-8.678a.8.8,0,0,1,.219-.052c1.2-.109,2.68,2.459,3.474,3.839.161.281.3.523.4.674,3.059,4.672,7.776,8.18,12.337,11.572l.686.51,1.009.753c6.833,5.1,13.9,10.378,22.891,12.419ZM628.459,51.42h0c-.164.015-.429-.017-.489-.165-.043-.109.029-.255.215-.437l.027,0c.259.04.519.081.78.119-.1.091-.2.182-.3.273l-.229.205Zm2.008-1.368h0c-.193.018-.427-.026-.483-.163-.044-.109.028-.256.215-.44l.807.125-.412.368-.02.018-.1.091Zm1.882-.829,0,0c-.176-.126-.281-.193-.35-.238a.4.4,0,0,1-.2-.2c-.032-.056-.07-.124-.13-.22l.807.125c-.022.089-.043.179-.065.269l-.009.037c-.018.076-.036.152-.055.229ZM217.862,86.4c-1.1.1-1.836-.2-2.026-.824-.212-.7.332-1.5.952-2.266.2-.252.537-.669.976-1.219,12.385-15.5,19.563-23.61,21.333-24.117a.658.658,0,0,1,.122-.024.343.343,0,0,1,.133.011.433.433,0,0,1,.23.388,2.446,2.446,0,0,1-.837,1.4c-3.346,3.248-5.094,7.376-6.784,11.367-.441,1.042-.9,2.118-1.374,3.161a28.555,28.555,0,0,1-4.643,7.278,15.084,15.084,0,0,1-7.165,4.681A5.371,5.371,0,0,1,217.862,86.4Zm416.5-38.547,0,0c-.172-.123-.276-.19-.344-.235a.4.4,0,0,1-.2-.2c-.028-.049-.068-.119-.133-.221l.428.065.037.006.342.052c-.02.085-.04.169-.061.253l0,.016-.008.033q-.028.116-.056.233Zm.666-1.015,0,0,.014-.017q.591-.734,1.184-1.469l.809.125-.224.34q-.222.337-.442.673l-.9.235-.443.115Zm2.01-1.365v0c.037-.156.075-.311.114-.468l.017-.07.165.026.018,0,.221.033c3.995-4.255,11.61-8.14,17.73-11.262,1.8-.917,3.49-1.781,4.934-2.572a15.192,15.192,0,0,1,2.8-1.1,10.346,10.346,0,0,0,3.776-1.8l.306.125a1.183,1.183,0,0,1,.776.6l-.1-.015c-.236-.035-.472-.07-.709-.108-2.983,2.622-6.719,4.154-10.332,5.635a56.32,56.32,0,0,0-6.44,2.96,52.638,52.638,0,0,0-4.6,3.092c-2.819,2.037-5.733,4.142-8.677,4.925ZM198.753,82.59v0c-.082-.76.606-1.486,1.213-2.127.084-.089.166-.175.244-.26a10.629,10.629,0,0,0,1.959-3.035.883.883,0,0,1,.636,1.15,3.905,3.905,0,0,1-.872,1.43c-.1.115-.2.248-.315.392-.738.928-1.853,2.332-2.864,2.452ZM703.036,31.047l0,0c-.176-.127-.281-.195-.35-.24a.391.391,0,0,1-.193-.2c-.028-.049-.067-.118-.129-.219l.341.052.466.071c-.031.119-.06.238-.089.357l-.044.18Zm-.957-1.267-.277-.113-.021-.009a1.181,1.181,0,0,1-.777-.6c.121.05.221.09.309.125a1.149,1.149,0,0,1,.768.594ZM351.615,61.357a6.328,6.328,0,0,0-2.29-1.841,11.08,11.08,0,0,1-1.154-.759c-1.293-1.075-2.572-2.23-3.8-3.434a61.167,61.167,0,0,1-6.456-7.395c-.555-.756-3.916-6.742-2.369-7.816a1.019,1.019,0,0,1,.486-.162q.054,0,.112-.006a1.676,1.676,0,0,1,1.321.884c2.5,3.438,4.961,6.918,7.327,10.341,1.257,1.819,2.4,3.493,3.5,5.117.352.519.752,1.029,1.139,1.522a12.343,12.343,0,0,1,2.19,3.546ZM668.833,28.575l0,0c-.175-.126-.279-.193-.348-.238a.4.4,0,0,1-.194-.2c-.028-.05-.068-.119-.132-.223.238.038.494.079.807.125-.037.167-.078.332-.12.5l-.009.037Zm.939-.415,0,0c-.173-.125-.277-.192-.346-.236a.4.4,0,0,1-.195-.2c-.028-.049-.068-.119-.133-.222.136.018.269.039.4.06l.407.064-.132.535Zm9.812-2.4v0l.005-.023c.042-.171.084-.341.125-.512.135.018.271.04.406.062a4.075,4.075,0,0,1,2.078-1.008,5.43,5.43,0,0,0,1.681-.648c1.141.171,1.863.318,2.293.911a8.225,8.225,0,0,0-1.376.011,14.721,14.721,0,0,0-2.866.631,19.66,19.66,0,0,1-2.344.578Zm-151.009-.327,0,0c-.043-.063-.076-.109-.1-.145l-.008-.011a.4.4,0,0,1-.1-.24c-.014-.079-.036-.2-.087-.411l.748-.012.088,0c-.157.136-.314.274-.465.407l-.009.008-.021.147-.009.058c-.01.066-.02.133-.029.2ZM235.786,48.887a13.516,13.516,0,0,1-2.078.044c5.516-8.476,16.093-16.977,21.908-21.291A62.433,62.433,0,0,1,276.6,17.15a41.227,41.227,0,0,1,6.595-1.168c.432-.039.869-.071,1.3-.095A5.33,5.33,0,0,1,280.553,18l-.108.013c-4.647.577-8,.993-12.293,3.622-5.006,3.068-10.133,6.458-13,11.16-.051.083-.122.194-.208.328-.636.992-2.123,3.307-1.606,4.155.153.252.475.357.955.314.292-.027.7-.079,1.172-.14.672-.087,1.508-.194,2.363-.272,2.764-.251,4.379-.053,4.936.607a.734.734,0,0,1,.107.851c-.544,1.138-3.433,2.262-4.2,2.479l-.192.052a4.1,4.1,0,0,0-.7.229,3.9,3.9,0,0,0-1.585,1.8,9.827,9.827,0,0,1-.552.895,3.98,3.98,0,0,1-3.066,1.723c-.178.016-.368.025-.565.027-.463,0-.957.031-1.469.078a51.6,51.6,0,0,0-7.518,1.494l-.131.033A48.932,48.932,0,0,1,235.786,48.887Zm32.852-20.639c-.134.012-.2-.035-.193-.142a3.9,3.9,0,0,1,.787-2.694,12.4,12.4,0,0,1,2.145-2.288,10.015,10.015,0,0,1,4.426-2.584,14,14,0,0,1-.755,1.186c-.324.478-.645.979-.956,1.463l-.009.014a33.755,33.755,0,0,1-2.054,2.967A11.985,11.985,0,0,1,268.638,28.248Zm47.481-12.44a27.1,27.1,0,0,0-8.834-.6l-.081.008c-1.011.094-2.042.243-3.04.387-1.023.148-2.075.3-3.106.394q-.255.023-.51.042c-2.955.21-4.921-.1-6.009-.947.529-.8,1.765-1.431,3.671-1.871a27.616,27.616,0,0,1,3.659-.544c.246-.022.469-.041.665-.057,4.229-.348,10.02-.079,13.587,3.18Z" transform="translate(-185.684 -190.415) rotate(31)"/>
      <path id="Fill_16_Copy" data-name="Fill 16 Copy" class="cls-5" d="M353.964,150.511a65.337,65.337,0,0,1-16.713-1.577,51.077,51.077,0,0,1-18.36-8.9c-6.914-5.109-12.4-11.092-17.7-16.879-1.525-1.664-3.1-3.382-4.683-5.052a223.732,223.732,0,0,0-26.155-23.439c-1.739-1.335-3.569-2.7-5.438-4.054-.892-.647-1.8-1.3-2.708-1.937-.252-.178-.6-.378-.963-.589a6.336,6.336,0,0,1-1.945-1.429c-.159-.259-.186-.434-.079-.521a.364.364,0,0,1,.222-.061,3.235,3.235,0,0,1,1.292.413c1.043.57,2.079,1.179,3.167,1.864,2.013,1.263,3.954,2.628,5.769,3.918a193.948,193.948,0,0,1,21.614,17.214c3.416,3.266,6.57,6.733,9.621,10.085a143.829,143.829,0,0,0,14.15,14.14c7.462,6.219,19.811,13.858,36.262,14.935,1.731.113,3.521.152,5.32.115,9.061-.184,19.071-2.286,29.754-6.247a38.534,38.534,0,0,1-12.521,5.472,80.6,80.6,0,0,1-14.793,2.292C357.325,150.4,355.6,150.477,353.964,150.511Zm46.546-13.3a.655.655,0,0,1-.267-.044.079.079,0,0,1-.055-.068c-.044-.462,3.373-2.739,4.66-3.6l.027-.018c.228-.152.393-.262.473-.318a32.9,32.9,0,0,0,5.8-5.1l.017-.02.017-.02a.5.5,0,0,1,.237.731,2.235,2.235,0,0,1-.7.632l-.03.021a31.772,31.772,0,0,0-3.644,3.09c-.441.414-.9.843-1.358,1.257l-.013.012C404.244,135.046,401.67,137.189,400.51,137.212Zm-33.2-13.2a47.167,47.167,0,0,1-5.709-.343c-5.745-.582-11.684-1.184-16.92-2.9a65.519,65.519,0,0,1-9.982-4.52,63.388,63.388,0,0,0-9.847-4.45,4.137,4.137,0,0,0-1.356-.2,3.453,3.453,0,0,0-2.768,1.275,1.275,1.275,0,0,0,.144,1.643,32.3,32.3,0,0,0,8.274,6.606c.224.129.308.31.229.5a.86.86,0,0,1-.772.416,1.119,1.119,0,0,1-.4-.064c-12.858-4.523-23.949-11.022-32.073-18.8a31.273,31.273,0,0,1-4.5-5.143c-.588-.88-1.1-1.8-1.586-2.691l-.011-.019c-.213-.386-.433-.786-.658-1.177C284.355,85.423,274.9,77.107,262.026,70.1c-10.317-5.613-22.557-10.452-39.687-15.69a23.685,23.685,0,0,0-7.245-1.256,8.347,8.347,0,0,0-3.969.956,10.132,10.132,0,0,0-1.207.842,6.956,6.956,0,0,1-1.94,1.176,7.874,7.874,0,0,1-2.462.367c-.382.008-.769,0-1.144,0l-.206,0c-.469,0-.946,0-1.416.008a74.276,74.276,0,0,0-14.555,2.087c-2.093.446-4.246.906-6.493,1.3-.526-1.957,5.763-5.764,9.141-7.81.419-.253.78-.472,1.075-.656a83.482,83.482,0,0,1,14.046-6.96,85.152,85.152,0,0,1,19.255-4.932,79.343,79.343,0,0,1,8.851-.686c1.792-.036,3.589-.008,5.342.084a47.042,47.042,0,0,1,12.618,2.182A53.177,53.177,0,0,1,260.289,45c7.679,4.191,15.619,8.523,21.838,13.807,7.232,6.143,11.961,13.423,16.533,20.463q-2.761-1.907-5.518-3.818c5.008,15.055,19.233,28.374,39.033,36.54,9.8,4.043,19.735,6.084,28.722,5.9a52.577,52.577,0,0,0,6.421-.52c14.063-2.032,24.653-9.488,35.155-17.607l-.012.029c-2.775,4.871-5.644,9.908-10.587,14.179a45.736,45.736,0,0,1-18.263,9.064,29.322,29.322,0,0,1-5.17.919C368.078,123.984,367.7,124,367.308,124.01Zm25.107-2.226c-.166,0-.268-.032-.3-.105-.172-.358,1.3-1.535,1.472-1.668a28.321,28.321,0,0,1,2.949-1.935l2.787-1.671a.979.979,0,0,1,.307-.137.65.65,0,0,1,.114-.013,1.2,1.2,0,0,1,.75.369l.018.015.061.05a3.556,3.556,0,0,0,2.244.584l.133,0a12.607,12.607,0,0,0,2.579-.472c.012.307-.348.568-.7.784a32.042,32.042,0,0,1-12.233,4.189A1.617,1.617,0,0,1,392.415,121.784Zm19.446-6.974c-.086,0-.139-.028-.159-.088-.1-.3.7-1.338,1.232-1.611a1.128,1.128,0,0,1,.218-.085.972.972,0,0,1,.252-.041.5.5,0,0,1,.54.381,5.167,5.167,0,0,1-1.539,1.252A1.427,1.427,0,0,1,411.861,114.809Zm19.461-3.989,0,0a22.964,22.964,0,0,1,3.557-3.436.852.852,0,0,1,.344-.185.538.538,0,0,1,.1-.012c.254-.005.489.171.484.362s-.189.377-.393.56-.4.373-.595.559a12.709,12.709,0,0,1-1.374,1.2,6.759,6.759,0,0,1-1.095.491A5.55,5.55,0,0,0,431.323,110.82Zm7.735-11.926a.734.734,0,0,1-.567-.149c-.371-.429.987-1.691,1.717-2.369.175-.163.312-.29.394-.376l.81-.846q1.755-1.832,3.508-3.665a20.614,20.614,0,0,1,7.129-5.415c-4.519,3.448-6.568,6.5-6.262,9.331l.011.093a1.291,1.291,0,0,1-.075.8,2.32,2.32,0,0,1-.944.765,17.12,17.12,0,0,1-5.067,1.756A4.184,4.184,0,0,1,439.058,98.894ZM392.57,97.081a.579.579,0,0,1-.574-.244c-.156-.3.093-.836.594-1.267a1.273,1.273,0,0,1,.526-.261,1.3,1.3,0,0,1,.282-.038.769.769,0,0,1,.678.292.78.78,0,0,1-.107.934,1.759,1.759,0,0,1-.931.516A2.2,2.2,0,0,1,392.57,97.081Zm-18.739-1.869h0c-.182-.227-.047-.5.363-.733a4.536,4.536,0,0,1,.869-.33l.151-.046a12.12,12.12,0,0,0,3.377-1.625l.2-.142a4.905,4.905,0,0,1,1.269-.736,2.486,2.486,0,0,1,.433-.11c-.143.03-.5.437-.785.764a4.97,4.97,0,0,1-.355.385,10.948,10.948,0,0,1-1.56,1.083,11.416,11.416,0,0,1-3.955,1.489Zm38.418-5.128a.114.114,0,0,1-.107-.044c-.139-.22.643-1.225,1.127-1.785.859-1,1.8-2.02,2.805-3.038a99.278,99.278,0,0,1,13.509-11.178c2.3-1.625,4.806-3.3,7.647-5.109l.284-.181a30.667,30.667,0,0,0,4.76-3.466l.037-.036a3.451,3.451,0,0,1,1.066-.787,2.053,2.053,0,0,1,.446-.125,17.409,17.409,0,0,1-3.532,3.162c-.709.531-1.443,1.08-2.095,1.651a27.968,27.968,0,0,0-3.853,4.411,23.981,23.981,0,0,1-4.795,5.167,35.431,35.431,0,0,1-5.187,2.971,37.4,37.4,0,0,0-4.988,2.824,28.928,28.928,0,0,0-2.741,2.321,24.574,24.574,0,0,1-3.377,2.753A2.757,2.757,0,0,1,412.249,90.084ZM398.914,80.066h-.049c.069-.59.841-1.394,1.461-2.04.223-.233.434-.452.589-.637.847-1.01,1.623-1.923,2.372-2.791a.639.639,0,0,1,.033.761,2.565,2.565,0,0,1-.467.542l-.011.01-.106.1a10.781,10.781,0,0,0-1.259,1.61c-.16.234-.325.475-.5.71l-.014.019C400.559,78.9,399.714,80.049,398.914,80.066Zm55.358-3.6h-.022c-.474.007-.768-.1-.872-.316-.21-.428.3-1.271,1.514-2.505l.014-.015a19.694,19.694,0,0,1,4.244-3.106c1.141-.657,2.359-1.28,3.537-1.883,1.494-.765,3.038-1.555,4.439-2.421a54.023,54.023,0,0,0,4.938-3.575,48.344,48.344,0,0,1,5.633-3.99c1.6-.929,3.4-1.744,5.13-2.533,1.77-.805,3.6-1.637,5.228-2.59a6.588,6.588,0,0,1,3.01-1.129,2.958,2.958,0,0,1,.565.042C480.011,57.167,471.171,64.28,463.8,70.576l-.115.1a29.643,29.643,0,0,1-8.1,5.453A3.686,3.686,0,0,1,454.272,76.463Zm-14.73-.514a.64.64,0,0,1-.244-.035.4.4,0,0,1-.217-.2.836.836,0,0,1-.036-.885,2.75,2.75,0,0,1,1.591-.7.688.688,0,0,1,.327.062.409.409,0,0,1,.2.411,1.735,1.735,0,0,1-1.625,1.343Zm-137.26.346h0a.3.3,0,0,0-.04,0l-.011,0v0a2.514,2.514,0,0,1-1.447-.582c-.444-.3-.917-.589-1.373-.865a21.508,21.508,0,0,1-1.833-1.194c-.884-.664-1.916-1.656-1.811-2.609,3.115,1,5.6,4,6.518,5.247ZM480.418,66.2h0l-.009-.005a5.225,5.225,0,0,1,.069-1.26.984.984,0,0,1,.552-.447,1.7,1.7,0,0,1,.536-.1h.028a1.318,1.318,0,0,1,.931.3.441.441,0,0,1-.008.57,3.172,3.172,0,0,1-2.1.951h0ZM81.66,62.9c-4.205.086-8.8-.053-14.048-.422A235.718,235.718,0,0,1,28.26,56.391a104.41,104.41,0,0,1-17.2-5.532C4.889,48.126.816,45-1.046,41.578A155.7,155.7,0,0,0,78.1,61.035c4.332-.088,8.744-.354,13.113-.79a59.35,59.35,0,0,0,12.371-2.285c6.167-2.023,10.915-5.673,14.882-8.935a210.478,210.478,0,0,0,20.606-19.343c1.194-1.288,2.4-2.62,3.569-3.908,8.7-9.6,17.7-19.533,32.65-24.651a99.549,99.549,0,0,1,20.04-4.1,182,182,0,0,1,18.235-1.365c2.784-.057,5.506-.029,8.091.082a90.812,90.812,0,0,1,16.9,2.221c11.49,2.718,20.822,7.881,28.434,12.573,14.61,9.005,23.925,17.241,29.316,25.92C284.478,24.817,273.435,14.547,258.06,6.7A100.269,100.269,0,0,0,211.316-4.178a85.109,85.109,0,0,0-9.893.774C176.857,0,158.806,13.8,147.989,24.782c-2.479,2.516-4.862,5.129-7.168,7.656a164.209,164.209,0,0,1-12.78,12.986A67.6,67.6,0,0,1,99.494,60.767,81.346,81.346,0,0,1,81.66,62.9ZM17.446,53.047v0c.158.051.328.111.519.181.008-.123.018-.246.028-.369l.02-.242-.72-.031-.066,0-.615-.027h0l.615.026.722.033.061,0c-.008.1-.016.206-.024.309l0,.039-.02.259C17.792,53.167,17.624,53.107,17.446,53.047Zm443.966,1.918a.814.814,0,0,1-.088,0c-.185-.017-.291-.069-.315-.155-.119-.42,1.734-1.544,2.107-1.765,1.677-1.006,3.462-1.991,5.306-2.926a18.928,18.928,0,0,1,5.053-1.9c.558-.106,1.14-.177,1.7-.245a19.9,19.9,0,0,0,2.167-.344l.079-.019c.212-.051.431-.1.654-.133a2.613,2.613,0,0,1,.326-.029,1.212,1.212,0,0,1,.529.091,24.145,24.145,0,0,1-4.814,1.548,30.686,30.686,0,0,0-4.059,1.2,22.221,22.221,0,0,0-3.842,2.147c-.57.372-1.159.757-1.772,1.115l-.233.14-.019.011A8.382,8.382,0,0,1,461.412,54.965Zm-116.694,2.25a8.506,8.506,0,0,1-1.881-.155c-1.11-.225-1.762-.682-1.991-1.4a4.532,4.532,0,0,1,1.244-.188,13.909,13.909,0,0,1,5.379,1.428A18.2,18.2,0,0,1,344.718,57.215Zm-14.16-.8a49.075,49.075,0,0,1-13.319-3.5,67.2,67.2,0,0,1-12.705-7.736l-.516-.371c-.357-.257-.736-.52-1.138-.8L302.868,44c-2.061-1.428-4.4-3.046-5.1-4.832a.764.764,0,0,1,.162-.02c.9-.018,2.181,1.407,2.868,2.172.143.16.257.286.339.368,2.6,2.6,6.388,4.634,10.048,6.6l.537.289.8.433c5.471,2.953,11.128,6.006,18.037,7.4Zm165.484-6.456,0,0c-.313-.208-.5-.319-.618-.393a.76.76,0,0,1-.35-.323c-.054-.078-.128-.186-.249-.348l1.369.272c-.03.15-.057.3-.085.452-.02.113-.041.226-.063.339Zm-320,6.388c-.8.016-1.359-.171-1.537-.514-.2-.383.156-.8.565-1.191.13-.125.339-.328.614-.6,8.183-7.962,12.978-12.108,14.252-12.322a.594.594,0,0,1,.086-.009.358.358,0,0,1,.1.011.285.285,0,0,1,.193.224c.024.226-.258.52-.531.719-2.265,1.64-3.3,3.809-4.3,5.907-.261.546-.53,1.111-.817,1.657a11.086,11.086,0,0,1-7.958,6.053A5,5,0,0,1,176.045,56.342Zm322.21-6.62,0,0c-.309-.206-.493-.318-.614-.392a.776.776,0,0,1-.351-.322c-.054-.078-.129-.185-.253-.35l.621.122.048.009.617.121c-.011.051-.021.1-.031.152l.091-.016-.036.193,0,.012c-.029.156-.059.311-.086.468Zm.126-.676v0l.022-.118-.041-.008-.041-.008.01-.046.027-.129.154.027.156.028c2.772-2.464,8.315-4.552,12.769-6.229,1.3-.491,2.532-.954,3.579-1.383a11.66,11.66,0,0,1,2.057-.565,7.518,7.518,0,0,0,2.756-.957l.233.087a1.09,1.09,0,0,1,.633.405c-.153-.026-.306-.053-.459-.081l-.163-.029a24.905,24.905,0,0,1-7.494,3.055,41.393,41.393,0,0,0-4.706,1.564,34.221,34.221,0,0,0-3.3,1.72,20.312,20.312,0,0,1-6.19,2.668Zm-1.991-.717,0,0q.469-.665.94-1.328l.347-.49.968.239-.2.364-.012.021q-.243.434-.485.866l-.939.2-.138.029-.475.1ZM159.123,53.181v0a1.962,1.962,0,0,1,.638-1.424l.007-.009c.045-.056.09-.111.132-.165a6.4,6.4,0,0,0,1.055-2.025.731.731,0,0,1,.434.837,2.389,2.389,0,0,1-.465.957c-.053.076-.111.164-.174.259-.406.613-1.02,1.539-1.625,1.571ZM548.934,42.594l0,0c-.313-.21-.5-.322-.619-.4a.769.769,0,0,1-.349-.324c-.055-.079-.129-.186-.246-.343l.578.114.03.006.761.15q-.03.156-.06.314l0,.022c-.029.152-.057.3-.087.456ZM278.519,46.7a6.792,6.792,0,0,0-2.036-1.074c-.406-.169-.786-.327-1.017-.453-1.152-.628-2.3-1.3-3.421-2a54.874,54.874,0,0,1-5.914-4.255c-.376-.313-3.015-3.037-2.792-4.041a.428.428,0,0,1,.262-.309,1.014,1.014,0,0,1,.385-.072h.1a1.844,1.844,0,0,1,1.167.525c2.371,2,4.676,3.981,6.851,5.894,1.173,1.03,2.248,1.982,3.285,2.913.329.294.7.586,1.057.868a9.1,9.1,0,0,1,2.076,2Zm270.631-5.824c-.2-.086-.373-.156-.519-.216a2.391,2.391,0,0,1-1.377-.98c.21.088.382.158.534.22a2.351,2.351,0,0,1,1.365.973Zm-27.315-.831,0,0c-.311-.208-.5-.32-.617-.395a.772.772,0,0,1-.35-.323c-.056-.081-.131-.188-.251-.349l.458.091.015,0c.3.06.6.119.9.177-.047.283-.1.56-.147.794Zm2.21-.234,0,0c-.314-.211-.5-.323-.618-.4a.776.776,0,0,1-.348-.322c-.054-.077-.13-.185-.249-.344.227.042.452.086.678.131l.693.137-.045.235,0,.016c-.035.18-.07.361-.1.543Zm7.167-.638v0l.034-.272.033-.268.11.036.169.06a2.083,2.083,0,0,1,1.378-.871,2.56,2.56,0,0,0,1.123-.534c.789.268,1.289.477,1.609,1.12a3.829,3.829,0,0,0-.942-.1,6.468,6.468,0,0,0-1.935.421,8.666,8.666,0,0,1-1.576.408ZM413.179,33.5l0,0c-.088-.11-.153-.187-.2-.245a.681.681,0,0,1-.2-.371c-.032-.112-.086-.3-.2-.63l1.095.051h.014l.289.013c-.143.11-.286.222-.425.33l-.317.247-.03.4-.015.2ZM187.327,36.219a15.058,15.058,0,0,1-1.647-.048c3.818-4.576,11.657-8.993,15.989-11.219a51.308,51.308,0,0,1,15.963-5.169,42.6,42.6,0,0,1,5.159-.426c.34-.007.683-.01,1.02-.008a4.126,4.126,0,0,1-2.983,1.053l-.09,0c-1.628.072-3.032.134-4.388.3.046-.045.094-.091.148-.15a10.516,10.516,0,0,0-2.919.665,18.5,18.5,0,0,0-2.356.795c-3.771,1.552-7.617,3.281-9.583,5.828-.035.045-.084.1-.143.177-.419.51-1.393,1.7-1.048,2.226.122.187.4.277.824.268.229,0,.548-.02.917-.037.535-.026,1.193-.057,1.866-.071,2.175-.044,3.469.124,3.954.515.171.138.227.284.165.434-.265.64-2.567,1.2-3.195,1.3l-.153.023a3.719,3.719,0,0,0-.533.105,2.1,2.1,0,0,0-1.141.957,4.426,4.426,0,0,1-.379.484,3.075,3.075,0,0,1-2.325.863c-.14,0-.288,0-.442,0-.37-.014-.763-.017-1.168-.008a52.789,52.789,0,0,0-5.862.576l-.145.02A49.674,49.674,0,0,1,187.327,36.219Zm22.714-11.948c-.132,0-.2-.023-.205-.077-.194-.408,0-.886.547-1.344a8.935,8.935,0,0,1,1.938-1.1c.473-.216.873-.383,1.259-.527a20.3,20.3,0,0,1,2.771-.516c-.153.147-.33.294-.5.432-.284.236-.562.483-.831.723a17.443,17.443,0,0,1-1.787,1.45A14,14,0,0,1,210.041,24.271Zm37.344-2.919a23.369,23.369,0,0,0-7.265-.986h-.062c-.817.019-1.648.08-2.451.14-.825.061-1.677.124-2.516.141q-.213,0-.427,0c-2.4,0-4.028-.36-4.971-1.109.381-.617,1.352-1.055,2.885-1.3a21.561,21.561,0,0,1,2.953-.231c.2,0,.385-.006.545-.008,3.439-.04,8.192.507,11.311,3.347Z" transform="matrix(-0.995, -0.105, 0.105, -0.995, 317.479, 1243.61)"/>
      <path id="Fill_16_Copy_2" data-name="Fill 16 Copy 2" class="cls-6" d="M196.5,161.712a65.337,65.337,0,0,0,16.713-1.577,51.077,51.077,0,0,0,18.36-8.9c6.915-5.109,12.4-11.092,17.7-16.879,1.526-1.664,3.1-3.382,4.683-5.052a223.732,223.732,0,0,1,26.155-23.439c1.739-1.335,3.569-2.7,5.438-4.054.892-.647,1.8-1.3,2.708-1.937.252-.178.6-.378.963-.589a6.336,6.336,0,0,0,1.945-1.429c.159-.259.186-.434.079-.521a.365.365,0,0,0-.222-.061,3.235,3.235,0,0,0-1.292.413c-1.043.57-2.079,1.179-3.167,1.864-2.013,1.263-3.954,2.628-5.769,3.918a193.946,193.946,0,0,0-21.614,17.214c-3.416,3.266-6.57,6.733-9.621,10.085a143.83,143.83,0,0,1-14.15,14.14c-7.462,6.219-19.811,13.858-36.262,14.935-1.731.113-3.521.152-5.32.115-9.061-.184-19.071-2.286-29.754-6.247a38.534,38.534,0,0,0,12.521,5.472,80.6,80.6,0,0,0,14.793,2.292C193.138,161.6,194.858,161.678,196.5,161.712Zm-46.546-13.3a.655.655,0,0,0,.267-.044.079.079,0,0,0,.055-.068c.044-.462-3.373-2.739-4.66-3.6l-.027-.018c-.228-.152-.393-.262-.473-.318a32.9,32.9,0,0,1-5.8-5.1l-.017-.02-.017-.02a.5.5,0,0,0-.237.731,2.235,2.235,0,0,0,.7.632l.03.021a31.772,31.772,0,0,1,3.644,3.09c.441.414.9.843,1.358,1.257l.013.012C146.218,146.247,148.793,148.389,149.953,148.413Zm33.2-13.2a47.166,47.166,0,0,0,5.709-.343c5.745-.582,11.684-1.184,16.92-2.9a65.513,65.513,0,0,0,9.982-4.52,63.39,63.39,0,0,1,9.847-4.45,4.137,4.137,0,0,1,1.356-.2,3.453,3.453,0,0,1,2.768,1.275,1.275,1.275,0,0,1-.144,1.643,32.3,32.3,0,0,1-8.274,6.606c-.224.129-.308.31-.229.5a.86.86,0,0,0,.772.416,1.119,1.119,0,0,0,.4-.064c12.858-4.523,23.949-11.022,32.073-18.8a31.274,31.274,0,0,0,4.5-5.143c.588-.88,1.1-1.8,1.586-2.691l.01-.019c.213-.386.434-.786.658-1.176,5.019-8.727,14.477-17.043,27.349-24.047,10.317-5.613,22.557-10.452,39.687-15.69a23.685,23.685,0,0,1,7.245-1.256,8.347,8.347,0,0,1,3.969.956,10.137,10.137,0,0,1,1.207.842,6.955,6.955,0,0,0,1.94,1.176,7.874,7.874,0,0,0,2.462.367c.382.008.769,0,1.144,0l.206,0c.469,0,.946,0,1.416.008a74.276,74.276,0,0,1,14.555,2.087c2.093.446,4.246.905,6.493,1.3.526-1.957-5.763-5.764-9.141-7.81-.419-.253-.78-.472-1.075-.656a83.482,83.482,0,0,0-14.046-6.96,85.153,85.153,0,0,0-19.255-4.932,79.344,79.344,0,0,0-8.851-.686c-1.792-.036-3.589-.008-5.342.084a47.042,47.042,0,0,0-12.618,2.182,53.179,53.179,0,0,0-8.26,3.893c-7.679,4.191-15.619,8.523-21.838,13.807C261.1,76.153,256.375,83.432,251.8,90.472q2.761-1.907,5.518-3.818c-5.008,15.055-19.233,28.374-39.033,36.54-9.8,4.043-19.735,6.084-28.722,5.9a52.574,52.574,0,0,1-6.421-.52c-14.063-2.032-24.653-9.488-35.155-17.607L148,111c2.775,4.871,5.644,9.908,10.587,14.179a45.736,45.736,0,0,0,18.263,9.064,29.323,29.323,0,0,0,5.17.919C182.385,135.185,182.766,135.2,183.155,135.21Zm-25.107-2.226c.166,0,.268-.032.3-.105.172-.358-1.3-1.535-1.472-1.669a28.331,28.331,0,0,0-2.949-1.935l-2.787-1.671a.978.978,0,0,0-.307-.137.651.651,0,0,0-.114-.013,1.2,1.2,0,0,0-.75.369l-.018.015-.061.05a3.556,3.556,0,0,1-2.244.584l-.133,0a12.607,12.607,0,0,1-2.579-.472c-.012.307.348.568.7.784a32.042,32.042,0,0,0,12.233,4.189A1.615,1.615,0,0,0,158.048,132.984ZM138.6,126.01c.086,0,.139-.028.159-.088.1-.3-.7-1.338-1.232-1.611a1.128,1.128,0,0,0-.218-.085.972.972,0,0,0-.252-.041.5.5,0,0,0-.54.381,5.166,5.166,0,0,0,1.539,1.252A1.426,1.426,0,0,0,138.6,126.01Zm-19.461-3.989,0,0a22.963,22.963,0,0,0-3.557-3.436.852.852,0,0,0-.344-.185.539.539,0,0,0-.1-.012c-.254-.005-.489.171-.484.362s.189.377.393.56.4.373.595.559a12.714,12.714,0,0,0,1.374,1.2,6.758,6.758,0,0,0,1.095.491A5.548,5.548,0,0,1,119.14,122.021ZM111.4,110.1a.734.734,0,0,0,.567-.149c.371-.429-.987-1.691-1.717-2.369-.175-.163-.312-.29-.394-.376l-.81-.846q-1.755-1.832-3.508-3.665a20.613,20.613,0,0,0-7.129-5.415c4.519,3.448,6.568,6.5,6.262,9.331l-.011.093a1.291,1.291,0,0,0,.075.8,2.32,2.32,0,0,0,.944.765,17.12,17.12,0,0,0,5.067,1.756A4.185,4.185,0,0,0,111.4,110.1Zm46.488-1.813a.579.579,0,0,0,.574-.244c.156-.3-.093-.836-.594-1.267a1.273,1.273,0,0,0-.526-.261,1.3,1.3,0,0,0-.282-.038.769.769,0,0,0-.678.292.78.78,0,0,0,.107.934,1.759,1.759,0,0,0,.931.516A2.2,2.2,0,0,0,157.892,108.282Zm18.739-1.869h0c.182-.227.047-.5-.363-.733a4.536,4.536,0,0,0-.869-.33l-.151-.046a12.12,12.12,0,0,1-3.377-1.625l-.2-.142a4.906,4.906,0,0,0-1.269-.736,2.486,2.486,0,0,0-.433-.11c.143.03.5.437.785.764a4.96,4.96,0,0,0,.355.385,10.947,10.947,0,0,0,1.56,1.083,11.416,11.416,0,0,0,3.955,1.489Zm-38.418-5.128a.114.114,0,0,0,.107-.044c.139-.22-.643-1.225-1.127-1.785-.859-1-1.8-2.02-2.805-3.038A99.277,99.277,0,0,0,120.878,85.24c-2.3-1.625-4.806-3.3-7.647-5.109l-.284-.181a30.666,30.666,0,0,1-4.76-3.466l-.037-.036a3.451,3.451,0,0,0-1.066-.787,2.054,2.054,0,0,0-.446-.125A17.408,17.408,0,0,0,110.17,78.7c.709.531,1.443,1.08,2.095,1.651a27.969,27.969,0,0,1,3.853,4.411,23.981,23.981,0,0,0,4.795,5.167A35.427,35.427,0,0,0,126.1,92.9a37.4,37.4,0,0,1,4.988,2.824,28.926,28.926,0,0,1,2.741,2.321,24.573,24.573,0,0,0,3.377,2.753A2.757,2.757,0,0,0,138.213,101.285Zm13.335-10.019h.049c-.069-.59-.841-1.394-1.461-2.04-.223-.233-.434-.452-.589-.637-.847-1.01-1.623-1.923-2.372-2.791a.639.639,0,0,0-.033.761,2.566,2.566,0,0,0,.467.542l.011.01.106.1a10.782,10.782,0,0,1,1.259,1.61c.16.234.325.475.5.71l.014.019C149.9,90.1,150.748,91.25,151.548,91.266Zm-55.358-3.6h.022c.474.007.768-.1.872-.316.21-.428-.3-1.271-1.514-2.505l-.014-.015a19.694,19.694,0,0,0-4.244-3.106c-1.141-.657-2.359-1.28-3.537-1.883-1.494-.765-3.038-1.555-4.439-2.421A54.02,54.02,0,0,1,78.4,73.842a48.346,48.346,0,0,0-5.633-3.99c-1.6-.929-3.4-1.744-5.13-2.533-1.77-.805-3.6-1.637-5.228-2.59A6.588,6.588,0,0,0,59.4,63.6a2.958,2.958,0,0,0-.565.042c11.619,4.725,20.459,11.838,27.832,18.134l.115.1a29.643,29.643,0,0,0,8.1,5.453A3.686,3.686,0,0,0,96.191,87.664Zm14.73-.514a.64.64,0,0,0,.244-.035.4.4,0,0,0,.217-.2.837.837,0,0,0,.036-.885,2.75,2.75,0,0,0-1.591-.7.688.688,0,0,0-.327.062.409.409,0,0,0-.2.411,1.539,1.539,0,0,0,1.409,1.322A1.522,1.522,0,0,0,110.921,87.15Zm137.26.346h0a.3.3,0,0,1,.04,0l.011,0v0a2.514,2.514,0,0,0,1.447-.582c.444-.3.917-.589,1.373-.865a21.512,21.512,0,0,0,1.833-1.194c.884-.664,1.916-1.656,1.811-2.609-3.115,1-5.6,4-6.518,5.247ZM70.044,77.406h0l.009-.005a5.224,5.224,0,0,0-.07-1.26.983.983,0,0,0-.552-.447,1.7,1.7,0,0,0-.536-.1H68.87a1.318,1.318,0,0,0-.931.3.441.441,0,0,0,.008.57,3.172,3.172,0,0,0,2.1.951h0ZM468.8,74.1c4.205.086,8.8-.053,14.048-.422A235.718,235.718,0,0,0,522.2,67.592a104.411,104.411,0,0,0,17.2-5.532c6.17-2.733,10.243-5.855,12.106-9.281a155.7,155.7,0,0,1-79.147,19.457c-4.332-.088-8.744-.354-13.113-.79a59.35,59.35,0,0,1-12.371-2.285c-6.167-2.023-10.915-5.673-14.882-8.935A210.472,210.472,0,0,1,411.39,40.882c-1.194-1.288-2.4-2.62-3.569-3.908-8.7-9.6-17.7-19.533-32.65-24.651a99.549,99.549,0,0,0-20.04-4.1A181.994,181.994,0,0,0,336.9,6.855c-2.784-.057-5.506-.029-8.091.082a90.812,90.812,0,0,0-16.9,2.221c-11.49,2.718-20.822,7.881-28.434,12.573-14.61,9.005-23.925,17.241-29.316,25.92,11.833-11.633,22.876-21.9,38.251-29.751A100.269,100.269,0,0,1,339.146,7.022a85.109,85.109,0,0,1,9.893.774c24.566,3.4,42.617,17.2,53.434,28.186,2.479,2.516,4.862,5.129,7.168,7.656a164.2,164.2,0,0,0,12.78,12.986,67.6,67.6,0,0,0,28.548,15.343A81.346,81.346,0,0,0,468.8,74.1Zm64.213-9.855v0c-.158.051-.328.111-.519.181-.008-.123-.018-.246-.028-.369l-.02-.242.72-.031.065,0,.615-.027h0l-.615.026-.722.033-.061,0c.008.1.016.206.024.309l0,.039.02.259C532.67,64.367,532.838,64.307,533.016,64.248ZM89.05,66.166a.814.814,0,0,0,.088,0c.185-.017.291-.069.316-.155.119-.42-1.734-1.544-2.107-1.765-1.677-1.006-3.462-1.991-5.306-2.926a18.928,18.928,0,0,0-5.053-1.9c-.558-.106-1.14-.177-1.7-.245a19.9,19.9,0,0,1-2.167-.344l-.079-.019c-.212-.051-.431-.1-.654-.133a2.613,2.613,0,0,0-.325-.029,1.212,1.212,0,0,0-.529.091,24.145,24.145,0,0,0,4.814,1.548,30.686,30.686,0,0,1,4.059,1.2,22.218,22.218,0,0,1,3.842,2.147c.57.372,1.159.757,1.772,1.115l.233.14.019.011A8.383,8.383,0,0,0,89.05,66.166Zm116.694,2.25a8.506,8.506,0,0,0,1.881-.155c1.11-.225,1.762-.682,1.991-1.4a4.531,4.531,0,0,0-1.244-.188,13.909,13.909,0,0,0-5.379,1.428A18.2,18.2,0,0,0,205.745,68.415Zm14.16-.8a49.075,49.075,0,0,0,13.319-3.5,67.2,67.2,0,0,0,12.705-7.736l.516-.371c.357-.257.736-.52,1.138-.8l.012-.008c2.061-1.428,4.4-3.046,5.1-4.832a.764.764,0,0,0-.162-.02c-.9-.018-2.181,1.407-2.868,2.172-.143.16-.257.286-.339.368-2.6,2.6-6.388,4.634-10.048,6.6l-.537.289-.8.433c-5.471,2.953-11.128,6.006-18.037,7.4ZM54.42,61.155l0,0c.313-.208.5-.319.618-.393a.76.76,0,0,0,.351-.323c.054-.078.128-.186.249-.348l-1.369.272c.03.15.057.3.085.452.02.113.041.226.063.339Zm320,6.388c.8.016,1.359-.171,1.537-.514.2-.383-.156-.8-.565-1.191-.13-.125-.339-.328-.614-.6-8.183-7.962-12.978-12.108-14.252-12.322a.593.593,0,0,0-.086-.009.358.358,0,0,0-.1.011.285.285,0,0,0-.193.224c-.024.226.258.52.531.719,2.265,1.64,3.3,3.809,4.3,5.907.26.546.53,1.111.817,1.657a11.086,11.086,0,0,0,7.958,6.053A5,5,0,0,0,374.418,67.543Zm-322.21-6.62,0,0c.309-.206.493-.318.614-.392a.775.775,0,0,0,.351-.322c.054-.078.129-.185.253-.35l-.621.122-.048.009-.617.121c.011.051.021.1.031.152l-.091-.016.036.193,0,.012c.029.156.059.311.086.468Zm-.125-.676v0l-.022-.118.041-.008.041-.008-.01-.046-.027-.129-.154.027-.156.028c-2.772-2.464-8.315-4.552-12.769-6.229-1.3-.491-2.532-.954-3.579-1.383a11.658,11.658,0,0,0-2.057-.565,7.517,7.517,0,0,1-2.756-.957l-.233.087a1.09,1.09,0,0,0-.633.405c.153-.026.306-.053.459-.081l.163-.029a24.906,24.906,0,0,0,7.494,3.055,41.389,41.389,0,0,1,4.706,1.564,34.22,34.22,0,0,1,3.3,1.72,20.312,20.312,0,0,0,6.19,2.668Zm1.991-.717,0,0q-.469-.665-.94-1.328l-.347-.49-.968.239.2.364.012.021q.243.434.485.866l.939.2.138.029.475.1ZM391.34,64.382v0a1.962,1.962,0,0,0-.638-1.424l-.007-.009c-.045-.056-.09-.111-.132-.165a6.4,6.4,0,0,1-1.055-2.025.731.731,0,0,0-.434.837,2.389,2.389,0,0,0,.465.957c.053.076.111.164.174.259.406.613,1.02,1.539,1.625,1.571ZM1.528,53.795l0,0c.313-.21.5-.322.619-.4a.769.769,0,0,0,.349-.324c.055-.079.129-.186.246-.343l-.578.114-.03.006L1.377,53q.03.156.06.314l0,.022c.029.152.057.3.087.456ZM271.944,57.9a6.792,6.792,0,0,1,2.036-1.074c.406-.169.786-.327,1.017-.453,1.152-.628,2.3-1.3,3.421-2a54.878,54.878,0,0,0,5.914-4.255c.376-.313,3.015-3.037,2.792-4.041a.428.428,0,0,0-.262-.309,1.014,1.014,0,0,0-.385-.072h-.1a1.844,1.844,0,0,0-1.167.525c-2.371,2-4.676,3.981-6.851,5.894-1.173,1.03-2.248,1.982-3.285,2.913-.329.294-.7.586-1.057.868a9.1,9.1,0,0,0-2.076,2ZM1.313,52.078c.2-.086.373-.156.519-.216a2.391,2.391,0,0,0,1.377-.98c-.21.088-.382.158-.534.22a2.351,2.351,0,0,0-1.365.973Zm27.315-.831,0,0c.311-.208.5-.32.617-.395a.772.772,0,0,0,.35-.323c.056-.081.131-.188.251-.349l-.458.091-.015,0c-.3.06-.6.119-.9.177.047.283.1.56.147.794Zm-2.21-.234,0,0c.314-.211.5-.323.618-.4a.776.776,0,0,0,.348-.322c.054-.077.13-.185.249-.344-.227.042-.452.086-.678.131l-.693.137.045.235,0,.016c.035.18.07.361.1.543Zm-7.167-.638v0l-.034-.272-.033-.268-.11.036-.169.06a2.083,2.083,0,0,0-1.378-.871,2.56,2.56,0,0,1-1.123-.534c-.789.268-1.289.477-1.609,1.12a3.829,3.829,0,0,1,.942-.1,6.467,6.467,0,0,1,1.935.421,8.668,8.668,0,0,0,1.576.408ZM137.284,44.7l0,0c.088-.11.153-.187.2-.245a.681.681,0,0,0,.2-.371c.032-.112.086-.3.2-.63l-1.095.051h-.014l-.289.013c.143.11.286.222.425.33l.317.247.03.4.015.2ZM363.135,47.42a15.059,15.059,0,0,0,1.647-.048c-3.818-4.576-11.657-8.993-15.989-11.219a51.307,51.307,0,0,0-15.963-5.169,42.6,42.6,0,0,0-5.159-.426c-.34-.007-.683-.01-1.02-.008a4.126,4.126,0,0,0,2.983,1.053l.09,0c1.628.072,3.032.134,4.388.3-.046-.045-.094-.091-.148-.15a10.516,10.516,0,0,1,2.919.665,18.5,18.5,0,0,1,2.356.795c3.771,1.552,7.617,3.281,9.583,5.828.035.045.084.1.143.177.419.51,1.392,1.7,1.048,2.226-.122.187-.4.277-.824.268-.229,0-.548-.02-.917-.037-.535-.026-1.193-.057-1.866-.071-2.175-.044-3.469.124-3.954.515-.171.138-.227.284-.165.434.265.64,2.567,1.2,3.195,1.3l.153.023a3.72,3.72,0,0,1,.533.105,2.1,2.1,0,0,1,1.141.957,4.416,4.416,0,0,0,.379.484,3.075,3.075,0,0,0,2.325.863c.14,0,.288,0,.442,0,.37-.014.763-.017,1.168-.008a52.789,52.789,0,0,1,5.862.576l.145.02A49.673,49.673,0,0,0,363.135,47.42ZM340.422,35.472c.132,0,.2-.023.205-.077.194-.408,0-.886-.547-1.344a8.935,8.935,0,0,0-1.938-1.1c-.473-.216-.873-.383-1.259-.527a20.3,20.3,0,0,0-2.771-.516c.154.147.33.294.5.432.284.236.562.483.831.723a17.443,17.443,0,0,0,1.787,1.45A14,14,0,0,0,340.422,35.472Zm-37.344-2.919a23.369,23.369,0,0,1,7.265-.986h.062c.817.019,1.648.08,2.451.14.825.061,1.677.124,2.516.141q.213,0,.427,0c2.4,0,4.028-.36,4.971-1.109-.381-.617-1.352-1.055-2.885-1.3a21.56,21.56,0,0,0-2.953-.231c-.2,0-.385-.006-.545-.008-3.439-.04-8.192.507-11.31,3.347Z" transform="matrix(0.995, -0.105, 0.105, 0.995, 560.605, 1101.413)"/>
    </g>
  </g>
</svg>
