<svg id="Background_1" data-name="Background 1" xmlns="http://www.w3.org/2000/svg" xmlns:xlink="http://www.w3.org/1999/xlink" width="834" height="1231.672" viewBox="0 0 834 1231.672">
  <defs>
    <style>
      .cls-1 {
        fill: none;
      }

      .cls-2 {
        clip-path: url(#clip-path);
      }

      .cls-3 {
        fill: #f1a948;
      }
    </style>
    <clipPath id="clip-path">
      <rect id="Mask" class="cls-1" width="834" height="1194"/>
    </clipPath>
  </defs>
  <rect id="Mask-2" data-name="Mask" class="cls-1" width="834" height="1231.672"/>
  <g id="Background_1-2" data-name="Background 1" class="cls-2" transform="translate(0 37.672)">
    <path id="Fill_10" data-name="Fill 10" class="cls-3" d="M251.08,2.562A123.226,123.226,0,0,0,217.988,4.6c-5.579,1.134-11.15,2.71-16.537,4.234-9.117,2.579-18.545,5.246-28.263,5.838-.379.023-.761.043-1.143.063a25.686,25.686,0,0,0-5.574.7c-.6.168-4.086,2.1-3.922,3.083.049.3.425.483,1.117.552l.046,0a2.8,2.8,0,0,0,1.368-.382c.109-.051.218-.1.327-.15a11.526,11.526,0,0,1,5.213-.51l.577.029c8.865.418,17.5-1.577,25.85-3.506,7.627-1.762,15.514-3.584,23.571-3.571.958,0,1.9.034,2.809.1,6.706.467,12.134,2.658,16.132,6.511,2.322,2.238,4.661,5.916,4.26,9.527a11.446,11.446,0,0,1-2.087,4.929,61.809,61.809,0,0,1-10.274,12.073A53.447,53.447,0,0,0,239.1,45.2a69.459,69.459,0,0,0,19.48-1.605A48.828,48.828,0,0,0,274,37.836a27.274,27.274,0,0,0,11.074-12.27,16.5,16.5,0,0,0,1.5-7.279,10.142,10.142,0,0,0-1.352-4.758A12.94,12.94,0,0,0,280.274,9.1c-5.084-2.865-10.525-4.06-15.649-4.924C260.1,3.417,255.546,2.873,251.08,2.562ZM193.618,6.61v0q.086,1.055.176,2.109l1-.656.7-.461c-.178-.2-.3-.347-.4-.455-.275-.324-.275-.324-.565-.362a7.238,7.238,0,0,1-.918-.176Zm100.621,15.6h0c-.3-.021-.6-.03-.9-.028l.034.329.034.329c1.792.952,3.1,3.153,4.363,5.282,1.387,2.335,2.7,4.541,4.506,4.849a6.569,6.569,0,0,0,3.132.884,15.282,15.282,0,0,0,3.2-.144,22.174,22.174,0,0,0-5.992-7.9A14.941,14.941,0,0,0,294.239,22.212Zm-3.876,10.3v0c-3.166,14.733-10.352,27.756-20.232,36.671a4.143,4.143,0,0,1,.879-.031,5.715,5.715,0,0,1,3.9,2.136c-10.747,28.365-35.5,43.821-60.646,56.3-10.669,5.291-22.089,10.388-34.081,9.553-.97-.068-1.948-.174-2.9-.317-1.418-.212-2.863-.516-4.261-.809a48.374,48.374,0,0,0-6.459-1.056,19.121,19.121,0,0,0-2.157-.036,3.265,3.265,0,0,1-.357-.007,28.226,28.226,0,0,1-3.969-.844c-.636-.161-1.355-.343-2.117-.526a58.724,58.724,0,0,0-9.747-1.628c-6.854-.477-12.78.859-17.614,3.972-6.85,4.413-13.771,9.4-19.877,13.794-5.82,4.191-10.845,7.81-14.21,9.776a111.4,111.4,0,0,1-11.627,5.632c-6.076,2.657-12.358,5.4-17.64,9.822-1.984,1.659-3.9,3.6-5.757,5.479-3.935,3.983-8,8.1-13.082,9.985-2.337.866-3.547,1.836-3.407,2.732s1.561,1.618,4.113,2.13A110.436,110.436,0,0,0,63.053,197.1q.471.033.941.062c17.286,1.055,35.758-1.616,58.132-8.4q.84-.255,1.681-.515a342.162,342.162,0,0,0,67.483-29.252,358.215,358.215,0,0,0,60.7-43.5l-14.445,6.829c6.054-7.64,13.052-14.564,19.819-21.261,6.564-6.5,13.351-13.212,19.22-20.534a88.042,88.042,0,0,0,14.424-24.879,36.187,36.187,0,0,0,2.37-13.017,18.55,18.55,0,0,0-3.015-10.118ZM193.66,146.8h0c-.889-3.039,6.783-5.648,12.385-7.553a26.433,26.433,0,0,0,5.246-2.089.225.225,0,0,1-.028.023c-4.355,3.488-10.917,8.279-17.6,9.618ZM92.761,40.931h0A79.118,79.118,0,0,0,72.3,52.854a139.018,139.018,0,0,0-17.694,16.9c-6.261,7-12.209,14.613-17.962,21.977-4.356,5.577-8.86,11.342-13.469,16.8-.265.315-.637.7-1.067,1.14-1.382,1.423-3.275,3.371-3.409,4.942-.077.869,0,1.393.227,1.557a.3.3,0,0,0,.158.056c.585.041,1.638-1.342,2.335-2.258l.016-.021c.079-.1.153-.2.22-.287,3.428-4.43,6.946-8.79,10.457-12.96,8.7-10.332,15.777-17.62,22.952-23.631,3.516-2.947,7.25-5.734,10.861-8.43,8.782-6.556,17.863-13.335,24.5-22.932a13.568,13.568,0,0,0,2.329-4.773Zm13.21,22.307c-5.186-.361-10.088,1.585-13.78,3.32-10.565,4.969-19.915,12.3-28.445,19.482C46.028,100.954,32.7,114.686,21.8,129.256c-6.341,8.472-10.746,15.926-13.864,23.457-.064.155-6.335,15.632-3.455,20.995a3.154,3.154,0,0,0,2.712,1.738,5.817,5.817,0,0,0,1.432-.1l.166-.031c-.186,3.145-.225,6.425,1.453,8.9,1.323,1.956,3.4,3.006,6.334,3.211a17.6,17.6,0,0,0,2.274,0c3.877-.231,11.208-3.032,21.788-8.327,9.053-4.53,20-10.651,31.646-17.7,10.523-6.367,20.879-13.068,28.413-18.383,7.933-5.6,12.226-9.283,12.089-10.377a.152.152,0,0,0,0-.124.175.175,0,0,0-.149-.066c-2.583-.181-34.852,18.063-56.2,30.135l-.01.006c-8.463,4.784-15.147,8.563-16.687,9.319a6.481,6.481,0,0,1-3.178.876,3.233,3.233,0,0,1-.965-.218c-1.836-.727-2.894-3.094-3.1-4.985a15.187,15.187,0,0,1,.828-5.946,45.3,45.3,0,0,0,1.773-13.37c.071-5.156.126-9.229,5.32-15.421a2.524,2.524,0,0,1,1.972-1.176c1.286.09,2.316,1.959,3.509,4.123.181.329.365.663.554,1,1.375,2.436,3.059,5.051,5.642,5.23a4.317,4.317,0,0,0,1.012-.052c5.883-.987,13.907-12.571,17.333-17.517.639-.923,1.1-1.59,1.363-1.918a122.922,122.922,0,0,0,9.142-13.725c.908-1.529,1.823-3.1,2.707-4.617,4.6-7.9,9.356-16.06,15.514-22.484.58-.605,1.18-1.2,1.759-1.779a36.42,36.42,0,0,0,5-5.736,14.878,14.878,0,0,0,2.417-10.636A17.584,17.584,0,0,0,105.971,63.238Zm153.075,89.183c-1.433-.1-7.353,2.386-12.415,4.746-5.907,2.754-11.122,5.523-12.4,6.583-4.049,3.36-14.973,10.884-23.751,16.929-3.966,2.732-7.39,5.09-9.537,6.622a36.337,36.337,0,0,1-5.562,2.858c-3.416,1.542-6.949,3.137-8.369,5.067,6.471-1.967,21.375-9.566,37.974-19.357,13.273-7.829,29.259-18.08,34.318-23.371A.468.468,0,0,0,259.046,152.421ZM11.068,136.862c-2.4,1.581-3.929,4.443-5.177,7-1.817,3.729-5.6,11.487-4.127,17.813.049.214.1.426.165.63a.741.741,0,0,0,.632-.527,18.42,18.42,0,0,0,.986-5.229c.053-.579.108-1.177.179-1.757.849-7.007,4.19-12.995,7.345-17.927ZM172.789,199.9A11.933,11.933,0,0,0,167.1,201.4c-4.831,3.02-10.822,4.842-16.615,6.6-1.192.363-2.425.737-3.616,1.114-.658.208-1.457.407-2.3.617-2.514.625-5.642,1.4-6.842,2.935l16.564-4.815,9.2-2.673a48.851,48.851,0,0,1,9.983-5.137A1.877,1.877,0,0,0,172.789,199.9Zm-65.435,13.476a35.058,35.058,0,0,0-5.761.209c-10.623,1.094-14.823,2.94-20.636,5.5-2.1.923-4.478,1.969-7.421,3.077l-.594,1.257-.23.487.275.266.275.266a6.2,6.2,0,0,0,4.543,2.1,26.861,26.861,0,0,0,6.188-.625,35.514,35.514,0,0,1,5.3-.669c12.117-.244,23.3-4.1,34.114-7.833a4.649,4.649,0,0,0-1.7-.425,14.23,14.23,0,0,0-3.961.527l-.047.011a14.458,14.458,0,0,1-4.09.53l-.11-.009c-1.53-.132-1.659-.9-1.809-1.782C111.483,215.031,111.248,213.643,107.354,213.372Zm22.525,2.872c-.942-.066-1.916.679-2.6,1.993q1.312-.6,2.618-1.2l.937-.43A1.815,1.815,0,0,0,129.879,216.244Z" transform="matrix(-0.309, 0.951, -0.951, -0.309, 975.987, -43.95)"/>
    <path id="Fill_10_Copy" data-name="Fill 10 Copy" class="cls-3" d="M251.881.711A119.268,119.268,0,0,0,219.3,4.458C213.78,5.9,208.246,7.786,202.895,9.614,193.838,12.706,184.474,15.9,174.907,17c-.373.043-.749.082-1.125.122a25.318,25.318,0,0,0-5.5.994c-.6.2-4.1,2.344-3.975,3.344.036.3.4.472,1.075.507l.045,0a2.876,2.876,0,0,0,1.358-.459c.109-.058.218-.116.327-.17a11.276,11.276,0,0,1,5.139-.784h.566c8.689-.021,17.248-2.492,25.525-4.882,7.56-2.183,15.378-4.44,23.29-4.833.941-.047,1.867-.061,2.754-.042,6.566.138,11.808,2.1,15.58,5.83,2.19,2.166,4.339,5.8,3.8,9.506a13.117,13.117,0,0,1-2.248,5.135,71.32,71.32,0,0,1-10.573,12.838,48.954,48.954,0,0,0,7.462.72A67.583,67.583,0,0,0,257.6,42.2a51.49,51.49,0,0,0,15.372-6.656,31.307,31.307,0,0,0,11.366-13.08,18.362,18.362,0,0,0,1.762-7.5,9.977,9.977,0,0,0-1.136-4.787,11.271,11.271,0,0,0-4.676-4.268c-4.877-2.667-10.173-3.611-15.169-4.235A129.706,129.706,0,0,0,251.881.711ZM195.293,7.742v0q.042,1.072.088,2.143l1.011-.72.71-.506c-.167-.194-.285-.339-.37-.445-.257-.317-.257-.317-.541-.341a6.566,6.566,0,0,1-.895-.133Zm98.181,10.842h0c-.293-.006-.591,0-.884.017l.02.334.02.334c1.722.881,2.917,3.061,4.073,5.169,1.268,2.313,2.466,4.5,4.23,4.721a5.85,5.85,0,0,0,3.04.744,14.712,14.712,0,0,0,3.146-.309,19.845,19.845,0,0,0-5.567-7.759A13.1,13.1,0,0,0,293.474,18.583Zm-4.219,10.7v0c-3.7,15.194-11.278,28.846-21.339,38.441a3.98,3.98,0,0,1,.864-.076,4.986,4.986,0,0,1,3.739,1.983c-11.691,29.487-36.616,46.508-61.811,60.509-10.689,5.938-22.108,11.715-33.85,11.468-.95-.02-1.906-.08-2.839-.177-1.384-.145-2.791-.382-4.151-.61a44.081,44.081,0,0,0-6.3-.751,18.1,18.1,0,0,0-2.117.073,3.084,3.084,0,0,1-.35.011,25.464,25.464,0,0,1-3.863-.661c-.618-.132-1.317-.281-2.057-.43a53.447,53.447,0,0,0-9.506-1.169,28.633,28.633,0,0,0-17.455,4.942c-6.9,4.849-13.9,10.284-20.072,15.079-5.883,4.571-10.963,8.517-14.345,10.692a120.288,120.288,0,0,1-11.643,6.334c-6.073,3.018-12.352,6.138-17.716,10.913-2.015,1.793-3.976,3.871-5.873,5.882-4.023,4.263-8.184,8.672-13.247,10.849-2.33,1-3.557,2.053-3.455,2.959s1.468,1.572,3.953,1.966a101.346,101.346,0,0,0,13.62,1.2q.461.01.922.015c16.932.2,35.178-3.454,57.421-11.511q.835-.3,1.671-.61a365.5,365.5,0,0,0,67.44-33.255A401.148,401.148,0,0,0,248.248,115.9l-14.459,7.7c6.251-8.1,13.4-15.521,20.314-22.7a282.973,282.973,0,0,0,19.7-21.924,101.808,101.808,0,0,0,15.162-26.115,40.19,40.19,0,0,0,2.85-13.4,18.172,18.172,0,0,0-2.555-10.172Zm-99.545,121.5h0c-.752-3.056,6.887-6.106,12.465-8.332a28.077,28.077,0,0,0,5.235-2.4.253.253,0,0,1-.029.025c-4.416,3.779-11.052,9-17.672,10.7ZM94.877,47.854l0,0a86.882,86.882,0,0,0-20.565,13.2A158.972,158.972,0,0,0,56.256,79.192c-6.429,7.457-12.575,15.528-18.52,23.333-4.5,5.91-9.155,12.021-13.9,17.825-.273.335-.653.743-1.094,1.217-1.414,1.522-3.351,3.606-3.546,5.215-.11.89-.056,1.421.161,1.578a.267.267,0,0,0,.153.049c.572.012,1.663-1.453,2.384-2.422l.016-.022c.082-.11.158-.213.228-.3,3.544-4.693,7.173-9.32,10.788-13.753,8.956-10.982,16.2-18.776,23.486-25.272,3.571-3.185,7.349-6.217,11-9.151C76.3,70.351,85.492,62.976,92.4,52.847a15.628,15.628,0,0,0,2.478-4.988Zm12.077,22.1c-5.078-.107-9.97,2.126-13.664,4.084C82.716,79.637,73.241,87.59,64.576,95.35c-18,16.112-31.639,30.8-42.929,46.215A124.705,124.705,0,0,0,7.093,166.2c-.069.161-6.848,16.271-4.235,21.6a2.763,2.763,0,0,0,2.593,1.637,5.634,5.634,0,0,0,1.41-.17l.164-.04c-.309,3.218-.479,6.568,1.069,9.013,1.221,1.929,3.213,2.9,6.091,2.956a16.72,16.72,0,0,0,2.233-.114c3.817-.431,11.128-3.66,21.729-9.6,9.071-5.08,20.062-11.878,31.785-19.659,10.589-7.028,21.027-14.388,28.638-20.193,8.015-6.112,12.378-10.089,12.287-11.2a.16.16,0,0,0,0-.127c-.02-.038-.069-.058-.144-.06-2.53-.054-34.948,20.191-56.4,33.588l-.01.006c-8.5,5.309-15.217,9.5-16.76,10.352a6.66,6.66,0,0,1-3.156,1.055,2.909,2.909,0,0,1-.939-.174c-1.774-.649-2.718-3.011-2.844-4.931a16.7,16.7,0,0,1,1.052-6.11A49.7,49.7,0,0,0,33.937,160.3c.276-5.265.494-9.424,5.843-16,.721-.888,1.37-1.313,1.984-1.3,1.26.026,2.2,1.882,3.28,4.031.165.326.332.658.5.991,1.253,2.417,2.8,5,5.33,5.052a4.165,4.165,0,0,0,1-.1c5.816-1.3,14.16-13.529,17.723-18.75.665-.974,1.145-1.678,1.415-2.026a142.442,142.442,0,0,0,9.527-14.467c.953-1.607,1.914-3.255,2.844-4.848,4.835-8.292,9.831-16.86,16.137-23.727.594-.647,1.207-1.286,1.8-1.9a42,42,0,0,0,5.14-6.106,16.631,16.631,0,0,0,2.8-10.976A16.122,16.122,0,0,0,106.954,69.95Zm146.737,83.277c-1.4-.03-7.316,2.806-12.382,5.47-5.911,3.109-11.143,6.2-12.44,7.344-4.111,3.633-15.14,11.862-24,18.474-4,2.988-7.461,5.567-9.631,7.238a39.483,39.483,0,0,1-5.576,3.2c-3.417,1.746-6.949,3.552-8.421,5.593,6.433-2.334,21.374-10.841,38.066-21.67,13.348-8.659,29.456-19.926,34.637-25.581A.416.416,0,0,0,253.692,153.227ZM10.809,149.869c-2.417,1.734-4.037,4.732-5.365,7.405-1.934,3.9-5.958,12-4.767,18.385.04.216.086.43.137.634a.828.828,0,0,0,.642-.57,20.471,20.471,0,0,0,1.178-5.385c.076-.594.154-1.206.246-1.8,1.115-7.193,4.635-13.471,7.932-18.664Zm156.277,56.158a12.222,12.222,0,0,0-5.644,1.823c-4.865,3.326-10.821,5.487-16.58,7.577-1.185.43-2.411.875-3.6,1.32-.654.245-1.447.488-2.286.746-2.493.764-5.6,1.716-6.836,3.34l16.458-5.749,9.138-3.191a53.076,53.076,0,0,1,10.009-5.746A1.689,1.689,0,0,0,167.086,206.026Zm-64.8,17.054a33.652,33.652,0,0,0-5.666.5c-10.476,1.652-14.674,3.749-20.485,6.65-2.1,1.048-4.476,2.235-7.411,3.514l-.634,1.313-.246.509.259.257.259.257A5.432,5.432,0,0,0,72.745,238a26.283,26.283,0,0,0,6.1-.95,35.01,35.01,0,0,1,5.23-.95c11.908-.86,23.044-5.362,33.813-9.715a4.164,4.164,0,0,0-1.651-.348,14.055,14.055,0,0,0-3.911.738l-.047.013a14.267,14.267,0,0,1-4.038.747l-.107,0c-1.5-.057-1.594-.831-1.7-1.727C106.278,224.565,106.1,223.16,102.29,223.08Zm22,1.794c-.923-.019-1.909.79-2.637,2.165q1.312-.678,2.619-1.357l.937-.487A1.6,1.6,0,0,0,124.294,224.874Z" transform="matrix(0.087, -0.996, 0.996, 0.087, -195.702, 1071.602)"/>
  </g>
</svg>
