<svg xmlns="http://www.w3.org/2000/svg" xmlns:xlink="http://www.w3.org/1999/xlink" width="653.609" height="542.35" viewBox="0 0 653.609 542.35">
  <defs>
    <style>
      .cls-1 {
        fill: #00aeef;
        stroke: #fff;
        stroke-width: 3px;
        isolation: isolate;
      }

      .cls-1, .cls-5 {
        stroke-miterlimit: 10;
      }

      .cls-2 {
        fill: #dedddb;
      }

      .cls-3 {
        fill: #3c3c3b;
      }

      .cls-4 {
        fill: #acd6da;
      }

      .cls-5 {
        fill: none;
        stroke: #3d3d3e;
        stroke-width: 5px;
      }

      .cls-6 {
        fill: url(#radial-gradient);
      }

      .cls-7 {
        fill: #f3aeb1;
      }

      .cls-8 {
        fill: #2e2f45;
      }
    </style>
    <radialGradient id="radial-gradient" cx="0.5" cy="0.5" r="0.494" gradientTransform="translate(-0.027 0.014) scale(1.013)" gradientUnits="objectBoundingBox">
      <stop offset="0" stop-color="#acd6da" stop-opacity="0.769"/>
      <stop offset="0.157" stop-color="#add6da" stop-opacity="0.753"/>
      <stop offset="0.311" stop-color="#b3d9dd" stop-opacity="0.698"/>
      <stop offset="0.465" stop-color="#bddee1" stop-opacity="0.608"/>
      <stop offset="0.618" stop-color="#cbe5e7" stop-opacity="0.478"/>
      <stop offset="0.772" stop-color="#ddeeef" stop-opacity="0.314"/>
      <stop offset="0.922" stop-color="#f2f8f9" stop-opacity="0.118"/>
      <stop offset="1" stop-color="#fff" stop-opacity="0"/>
    </radialGradient>
  </defs>
  <g id="Group_483" data-name="Group 483" transform="translate(-92.453 -15.807)">
    <path id="Path_1307" data-name="Path 1307" class="cls-1" d="M471.991,106.316c-41.7-1.79-81.414-18.467-119.335-36.713S277.164,31.157,236.469,21.482c-26.179-6.218-56.117-7.13-77.207,10.289C138.96,48.5,132.4,77.4,128.881,104.177c-2.653,20.164-4.213,41.355,3.051,60.256,5.048,13.1,14.01,24.115,20.21,36.664,21.556,43.679,6.331,97.532-17.05,140.17-10.936,20.008-23.675,39.088-32.13,60.385s-12.37,45.69-4.974,67.408c7.339,21.533,24.815,37.676,43.752,49.084,38.457,23.1,83.775,29.718,127.964,33.462,97.82,8.285,196.163,4.7,294.241,1.1,36.3-1.333,72.751-2.681,108.462-9.633,19.824-3.857,40.293-9.982,54.683-24.777,18.276-18.781,22.806-50.581,10.557-74.153-20.538-39.494-77.333-49.305-91.689-91.693-7.9-23.33.213-49.319,11.7-70.959,24.636-46.425,65.931-87.145,68.107-140.207,1.5-36.442-18.357-72.941-49.048-90.182-32.177-18.074-76.787-15.8-100.525,14.118C551.759,96.041,508.807,107.9,471.991,106.316Z"/>
    <path id="Path_1308" data-name="Path 1308" class="cls-2" d="M370.423,197.637S383.7,306.38,386.01,326.291s-16.619,93.8-15.9,125.066,51.181,29.409,51.181,29.409,43.834,3.049,47.6-22.755-14.554-64.995-16.163-120.393,23.792-136.865,15.349-150.807-30.552-19.237-49.533-16.664S377.741,169.344,370.423,197.637Z"/>
    <rect id="Rectangle_638" data-name="Rectangle 638" class="cls-3" width="27.771" height="60.343" rx="12" transform="translate(406.062 303.343)"/>
    <path id="Path_1309" data-name="Path 1309" class="cls-4" d="M458.756,274.294s-57.733-11.114-79.2-1.6c-2.708-14.557-4.89-44.739-4.89-44.739s-1.071-13.311-3.27-22.309-1.046-16.74,5.509-22.522,20.058-14.463,43.915-13.539,36.312,4.372,44.876,15.2.175,42.791-.9,49.3S458.756,274.294,458.756,274.294Z"/>
    <path id="Path_1310" data-name="Path 1310" class="cls-5" d="M379.776,274.473c10.012-2.844,24.967-5.416,42.5-5.651a123.539,123.539,0,0,1,36.482,5.472"/>
    <ellipse id="Ellipse_362" data-name="Ellipse 362" class="cls-6" cx="71.306" cy="72.233" rx="71.306" ry="72.233" transform="translate(354.734 132.672)"/>
    <g id="Group_482" data-name="Group 482">
      <path id="Path_1311" data-name="Path 1311" class="cls-7" d="M694.546,536.085a186.952,186.952,0,0,1-41.4,10.221c-38.143,5.013-107.07,5.935-106.727,5.108l-133.68-82.061-.006-.005-.4-.246-.065-.043-.965-.6-11.558-7.273c.022-.2.049-.387.088-.572a5.238,5.238,0,0,1,1.188-2.426,5.787,5.787,0,0,1,.687-.687h.005c.109-.093.224-.185.344-.273s.245-.179.376-.261c2.235-1.5,5.6-2.137,9.115-2.328a43.378,43.378,0,0,1,21.877,4.743c13.645,6.9,42.975,20.481,47.549,12.162,6-10.9-62.148-132.473-62.148-132.473-5.61-14.419-1.505-19.129,1.068-20.612.077-.044.153-.088.224-.126a6.337,6.337,0,0,1,.845-.359,3.908,3.908,0,0,1,.463-.137,1.092,1.092,0,0,1,.126-.027L430.6,329.82l.137.18.485.649.147.2,54.794,72.822c85.515-31.6,114.315,91.825,114.315,91.825Z"/>
      <path id="Path_1312" data-name="Path 1312" class="cls-8" d="M431.365,331.845a2.371,2.371,0,0,1-2.2,1.336,3.508,3.508,0,0,1-.894-.12c-2.028-.545-4.378-2.77-6.133-5.806-1.712-2.966-2.415-5.948-2.017-7.927a6.337,6.337,0,0,1,.845-.359,3.908,3.908,0,0,1,.463-.137c-.7,1.38-.283,4.514,1.658,7.878,1.586,2.753,3.734,4.835,5.462,5.293a1.483,1.483,0,0,0,1.941-.8,1.441,1.441,0,0,0,.1-.386l.137.18.485.649Z"/>
      <path id="Path_1313" data-name="Path 1313" class="cls-8" d="M412.339,470.1l-.065-.043-.965-.6c.005-1.554-1.172-4.1-3.773-6.657-2.2-2.142-4.748-3.549-6.509-3.614a5.787,5.787,0,0,1,.687-.687h.005c.109-.093.224-.185.344-.273a14.22,14.22,0,0,1,6.236,3.8C411.156,464.825,412.726,468.025,412.339,470.1Z"/>
    </g>
  </g>
</svg>
